<?xml version="1.0" encoding="UTF-8" standalone="no"?>
<!-- Created with Inkscape (http://www.inkscape.org/) -->

<svg
   xmlns:dc="http://purl.org/dc/elements/1.1/"
   xmlns:cc="http://creativecommons.org/ns#"
   xmlns:rdf="http://www.w3.org/1999/02/22-rdf-syntax-ns#"
   xmlns:svg="http://www.w3.org/2000/svg"
   xmlns="http://www.w3.org/2000/svg"
   xmlns:sodipodi="http://sodipodi.sourceforge.net/DTD/sodipodi-0.dtd"
   xmlns:inkscape="http://www.inkscape.org/namespaces/inkscape"
   width="744.09448819"
   height="1052.3622047"
   id="svg2"
   version="1.1"
   inkscape:version="0.47 r22583"
   sodipodi:docname="xn.svg">
  <defs
     id="defs4">
    <inkscape:perspective
       sodipodi:type="inkscape:persp3d"
       inkscape:vp_x="0 : 526.18109 : 1"
       inkscape:vp_y="0 : 1000 : 0"
       inkscape:vp_z="744.09448 : 526.18109 : 1"
       inkscape:persp3d-origin="372.04724 : 350.78739 : 1"
       id="perspective10" />
    <inkscape:perspective
       id="perspective2884"
       inkscape:persp3d-origin="0.5 : 0.33333333 : 1"
       inkscape:vp_z="1 : 0.5 : 1"
       inkscape:vp_y="0 : 1000 : 0"
       inkscape:vp_x="0 : 0.5 : 1"
       sodipodi:type="inkscape:persp3d" />
  </defs>
  <sodipodi:namedview
     id="base"
     pagecolor="#ffffff"
     bordercolor="#666666"
     borderopacity="1.0"
     inkscape:pageopacity="0.0"
     inkscape:pageshadow="2"
     inkscape:zoom="0.494975"
     inkscape:cx="364.241"
     inkscape:cy="485.072"
     inkscape:document-units="px"
     inkscape:current-layer="layer1"
     showgrid="true"
     inkscape:window-width="1680"
     inkscape:window-height="1024"
     inkscape:window-x="0"
     inkscape:window-y="1"
     inkscape:window-maximized="1">
    <inkscape:grid
       type="xygrid"
       id="grid2890" />
  </sodipodi:namedview>
  <metadata
     id="metadata7">
    <rdf:RDF>
      <cc:Work
         rdf:about="">
        <dc:format>image/svg+xml</dc:format>
        <dc:type
           rdf:resource="http://purl.org/dc/dcmitype/StillImage" />
        <dc:title />
      </cc:Work>
    </rdf:RDF>
  </metadata>
  <g
     inkscape:label="Layer 1"
     inkscape:groupmode="layer"
     id="layer1">
    <path
       style="fill:none;stroke:#00ff00;stroke-width:5;stroke-linecap:butt;stroke-linejoin:miter;stroke-opacity:1;stroke-miterlimit:4;stroke-dasharray:none"
       d="m 260,387.36218 -20,35 -30,45 -5,40 0,20 10,20 15,15 5,25 10,10 5,25 15,40 0,15 115,-40 -10,-35 5,-35 20,-30 -10,-30 0,-40 25,-50 35,-20 35,0 -25,-20 -60,-25 -135,0 -35,10 -35,25 -40,50 -55,25 -20,30 -30,30 -5,80 40,35 15,5 30,20 20,5 35,0 10,-35 0,-30 -15,-20 -35,-15 -10,-15 5,-15 55,0 15,-10"
       id="path2896" />
    <path
       style="fill:none;stroke:#000000;stroke-width:1px;stroke-linecap:butt;stroke-linejoin:miter;stroke-opacity:1"
       d="m 480,397.36218 30,15 20,25 5,30 -15,50 -10,15 0,40 -25,60 -15,35 -10,30 -80,35 -45,0 -110,25 -70,0 -35,-10 -15,-15 0,-40 5,-15 15,-10 55,0 10,10 10,25 30,-5 35,-20"
       id="path2898" />
    <path
       id="path2900"
       d="m 480,397.36218 30,15 20,25 5,30 -15,50 -10,15 0,40 -25,60 -15,35 -10,30 -80,35 -45,0 -110,25 -70,0 -35,-10 -15,-15 0,-40 5,-15 15,-10 55,0 10,10 10,25 30,-5 35,-20"
       style="fill:none;stroke:#00ff00;stroke-width:5;stroke-linecap:butt;stroke-linejoin:miter;stroke-opacity:1;stroke-miterlimit:4;stroke-dasharray:none" />
    <path
       style="fill:none;stroke:#00ff00;stroke-width:5;stroke-linecap:butt;stroke-linejoin:miter;stroke-opacity:1;stroke-miterlimit:4;stroke-dasharray:none"
       d="m 260,352.36218 25,30 40,-15 35,-20 20,-30 20,-25 10,-30 -5,-40 -25,-40 -25,-15 -60,5 -25,20 -20,35 -5,35 0,50 15,40 z"
       id="path3678" />
    <path
       style="fill:none;stroke:#00ff00;stroke-width:5;stroke-linecap:butt;stroke-linejoin:miter;stroke-opacity:1;stroke-miterlimit:4;stroke-dasharray:none"
       d="m 395,297.36218 -10,55"
       id="path3680"
       sodipodi:nodetypes="cc" />
    <path
       style="fill:none;stroke:#00ff00;stroke-width:5;stroke-linecap:butt;stroke-linejoin:miter;stroke-opacity:1;stroke-miterlimit:4;stroke-dasharray:none"
       d="m 480.17857,642.36218 -0.17857,60 30,50 70,165 -175,40 -45,-75 -100,80 -215,-40 25,-25 70,-60 85,-50 25,-10 5,-15 -5,-10"
       id="path3682" />
    <path
       style="fill:none;stroke:#00ff00;stroke-width:3;stroke-linecap:butt;stroke-linejoin:miter;stroke-opacity:1;stroke-miterlimit:4;stroke-dasharray:none"
       d="m 255,767.36218 35,25 45,15 60,0 60,-30 50,-35 -25,-40 -75,30 -25,0"
       id="path3684" />
    <path
       style="fill:none;stroke:#ff0000;stroke-width:3;stroke-linecap:butt;stroke-linejoin:miter;stroke-opacity:1;stroke-miterlimit:4;stroke-dasharray:none"
       d="m 380,732.36218 10,10 5,20 -10,20 -15,15 -35,10 -35,-25 -5,-20 5,-15 10,-10 10,0 -5,5 -10,15 5,15 15,15 10,15 10,-15 20,-5 10,-10 10,-15 0,-10 -10,-15 5,0 z"
       id="path3686" />
    <path
       style="fill:none;stroke:#ff0000;stroke-width:3;stroke-linecap:butt;stroke-linejoin:miter;stroke-opacity:1;stroke-miterlimit:4;stroke-dasharray:none"
       d="M 335.17857,797.00504 325,777.36218 l -10,-5 10,0 5,-10 -10,0 c 0,0 15,-10 15,-10 l -20,5 35,-20 15,0 5,5 10,5 -20,10 10,0 -15,10 0,10 10,0 -25,5 -4.82143,14.64286 z"
       id="path3688"
       sodipodi:nodetypes="ccccccccccccccccccc" />
    <path
       style="fill:none;stroke:#ff0000;stroke-width:1px;stroke-linecap:butt;stroke-linejoin:miter;stroke-opacity:1"
       d="m 335,807.36218 60,-5 -10,-10 10,-15 15,10 5,10 20,-10 -10,-10 -20,-5 5,-15 15,0 5,5 -5,10 15,-5 20,0 -10,-10 -20,-10 -20,0 5,-15 20,0 5,10 5,-20 15,0 -10,-5"
       id="path3690" />
    <path
       style="fill:none;stroke:#ff0000;stroke-width:1px;stroke-linecap:butt;stroke-linejoin:miter;stroke-opacity:1"
       d="m 306.07143,788.79075 3.92857,8.57143 -10,-10 -15,-15 -10,5 -5,-10 15,-5 -5,-10 20,-5"
       id="path3692" />
    <path
       style="fill:none;stroke:#ff0000;stroke-width:3;stroke-linecap:butt;stroke-linejoin:miter;stroke-opacity:1;stroke-miterlimit:4;stroke-dasharray:none"
       d="M 268.95312,406.62217 235,452.36218 l -10,20 0,20 10,20 20,20 15,0 -10,-15 0,-15 -20,-20 0,-30 28.95312,-45.74001 z"
       id="path3694" />
    <path
       style="fill:none;stroke:#ff0000;stroke-width:3;stroke-linecap:butt;stroke-linejoin:miter;stroke-opacity:1;stroke-miterlimit:4;stroke-dasharray:none"
       d="m 270,532.36218 15,-25 35,0 20,-20 10,-15 10,-25 -10,-40 15,45 0,15 -15,35 -30,20 -20,10 -30,0 z"
       id="path3696"
       sodipodi:nodetypes="ccccccccccccc" />
    <path
       style="fill:none;stroke:#0000ff;stroke-width:5;stroke-linecap:butt;stroke-linejoin:miter;stroke-opacity:1;stroke-miterlimit:4;stroke-dasharray:none"
       d="m 145,565.93361 5,-73.57143 20,-175 50,-239.999997 25,-30 25,-15 -30,109.999997 -30,120 -20,125 -20,190 -25,-11.42857 z"
       id="path3698" />
    <path
       style="fill:none;stroke:#00ff00;stroke-width:1px;stroke-linecap:butt;stroke-linejoin:miter;stroke-opacity:1"
       d="m 385,352.36218 -50,65 -45,15 -10,-10 -10,-25 -10,-45"
       id="path3700"
       sodipodi:nodetypes="cccccc" />
    <path
       style="fill:none;stroke:#00ff00;stroke-width:1px;stroke-linecap:butt;stroke-linejoin:miter;stroke-opacity:1"
       d="M 249.64286,432.71932 260,432.36218 l 25,20 5,35 5,-30 15,-10 20,-10 20,5 10,5"
       id="path3702" />
    <path
       style="fill:none;stroke:#00ff00;stroke-width:3;stroke-linecap:butt;stroke-linejoin:miter;stroke-opacity:1;stroke-miterlimit:4;stroke-dasharray:none"
       d="m 230,567.36218 15,-10 25,-25 60,25 40,-5 20,-10 -15,25 -5,30 -40,-10 -50,-25 -5,-5 -5,10 -15,20 -10,10 10,35 20,-15 5,-15 15,10 80,15"
       id="path3704"
       sodipodi:nodetypes="ccccccccccccccccccc" />
    <path
       style="fill:none;stroke:#00ff00;stroke-width:3;stroke-linecap:butt;stroke-linejoin:miter;stroke-opacity:1;stroke-miterlimit:4;stroke-dasharray:none"
       d="M 250.71429,771.82647 300,817.36218 l 40,55 20,10 25,-5 35,-45 100,-60"
       id="path3706" />
    <path
       style="fill:none;stroke:#00ff00;stroke-width:3;stroke-linecap:butt;stroke-linejoin:miter;stroke-opacity:1;stroke-miterlimit:4;stroke-dasharray:none"
       d="M 145.46197,573.0448 110,582.36218 l -20,25 5,30 5,5"
       id="path3708" />
    <path
       style="fill:none;stroke:#00ff00;stroke-width:3;stroke-linecap:butt;stroke-linejoin:miter;stroke-opacity:1;stroke-miterlimit:4;stroke-dasharray:none"
       d="m 130,547.36218 -20,-15 -20,0"
       id="path3712" />
    <path
       style="fill:none;stroke:#00ff00;stroke-width:3;stroke-linecap:butt;stroke-linejoin:miter;stroke-opacity:1;stroke-miterlimit:4;stroke-dasharray:none"
       d="M 135.86552,542.23515 125,527.36218 l -15,-10"
       id="path3714" />
    <path
       style="fill:none;stroke:#00ff00;stroke-width:3;stroke-linecap:butt;stroke-linejoin:miter;stroke-opacity:1;stroke-miterlimit:4;stroke-dasharray:none"
       d="m 395,537.36218 15,10 15,0 20,-15 20,-5 20,5 25,0"
       id="path3716" />
    <path
       style="fill:none;stroke:#00ff00;stroke-width:3;stroke-linecap:butt;stroke-linejoin:miter;stroke-opacity:1;stroke-miterlimit:4;stroke-dasharray:none"
       d="m 380,637.36218 35,0"
       id="path3718" />
    <path
       style="fill:none;stroke:#00ff00;stroke-width:3;stroke-linecap:butt;stroke-linejoin:miter;stroke-opacity:1;stroke-miterlimit:4;stroke-dasharray:none"
       d="m 380,637.36218 30,15"
       id="path3720" />
    <path
       style="fill:none;stroke:#00ff00;stroke-width:3;stroke-linecap:butt;stroke-linejoin:miter;stroke-opacity:1;stroke-miterlimit:4;stroke-dasharray:none"
       d="m 225,702.36218 -10,20 5,35 -10,0 0,-25 0,-20 10,-10 -10,0 -10,15 0,40 -5,0 -5,-25 5,-15 10,-15 -5,0 -15,15 0,30 5,10"
       id="path3722" />
  </g>
</svg>
