<?xml version="1.0" encoding="UTF-8" standalone="no"?>
<!-- Created with Inkscape (http://www.inkscape.org/) -->

<svg
   xmlns:osb="http://www.openswatchbook.org/uri/2009/osb"
   xmlns:dc="http://purl.org/dc/elements/1.1/"
   xmlns:cc="http://creativecommons.org/ns#"
   xmlns:rdf="http://www.w3.org/1999/02/22-rdf-syntax-ns#"
   xmlns:svg="http://www.w3.org/2000/svg"
   xmlns="http://www.w3.org/2000/svg"
   xmlns:sodipodi="http://sodipodi.sourceforge.net/DTD/sodipodi-0.dtd"
   xmlns:inkscape="http://www.inkscape.org/namespaces/inkscape"
   width="546.031"
   height="938"
   id="svg2"
   version="1.1"
   inkscape:version="0.47+devel r"
   sodipodi:docname="New document 1">
  <defs
     id="defs4">
    <linearGradient
       osb:paint="solid"
       id="linearGradient3905">
      <stop
         offset="0"
         style="stop-color:#313131;stop-opacity:1;"
         id="stop3907" />
    </linearGradient>
    <linearGradient
       osb:paint="solid"
       id="linearGradient3901">
      <stop
         offset="0"
         style="stop-color:#1e1e1e;stop-opacity:1;"
         id="stop3903" />
    </linearGradient>
    <linearGradient
       osb:paint="solid"
       id="linearGradient3897">
      <stop
         offset="0"
         style="stop-color:#b1b1b1;stop-opacity:1;"
         id="stop3899" />
    </linearGradient>
    <linearGradient
       osb:paint="solid"
       id="linearGradient3893">
      <stop
         offset="0"
         style="stop-color:#9c9c9c;stop-opacity:1;"
         id="stop3895" />
    </linearGradient>
    <linearGradient
       osb:paint="solid"
       id="linearGradient3878">
      <stop
         offset="0"
         style="stop-color:#21466b;stop-opacity:1;"
         id="stop3880" />
    </linearGradient>
    <linearGradient
       osb:paint="solid"
       id="linearGradient3874">
      <stop
         offset="0"
         style="stop-color:#1f3950;stop-opacity:1;"
         id="stop3876" />
    </linearGradient>
    <linearGradient
       osb:paint="solid"
       id="linearGradient3870">
      <stop
         offset="0"
         style="stop-color:#4c3450;stop-opacity:1;"
         id="stop3872" />
    </linearGradient>
    <linearGradient
       osb:paint="solid"
       id="linearGradient3866">
      <stop
         offset="0"
         style="stop-color:#371f3d;stop-opacity:1;"
         id="stop3868" />
    </linearGradient>
    <linearGradient
       osb:paint="solid"
       id="linearGradient3851">
      <stop
         offset="0"
         style="stop-color:#22446d;stop-opacity:1;"
         id="stop3853" />
    </linearGradient>
    <linearGradient
       osb:paint="solid"
       id="linearGradient3836">
      <stop
         offset="0"
         style="stop-color:#122b4e;stop-opacity:1;"
         id="stop3838" />
    </linearGradient>
    <linearGradient
       osb:paint="solid"
       id="linearGradient3821">
      <stop
         offset="0"
         style="stop-color:#920000;stop-opacity:1;"
         id="stop3823" />
    </linearGradient>
    <linearGradient
       osb:paint="solid"
       id="linearGradient3813">
      <stop
         offset="0"
         style="stop-color:#700000;stop-opacity:1;"
         id="stop3815" />
      <stop
         id="stop3817"
         style="stop-color:#700000;stop-opacity:1;"
         offset="1" />
    </linearGradient>
    <linearGradient
       osb:paint="solid"
       id="linearGradient3798">
      <stop
         offset="0"
         style="stop-color:#38650b;stop-opacity:1;"
         id="stop3800" />
    </linearGradient>
    <linearGradient
       osb:paint="solid"
       id="linearGradient3783">
      <stop
         offset="0"
         style="stop-color:#214103;stop-opacity:1;"
         id="stop3785" />
    </linearGradient>
    <linearGradient
       osb:paint="solid"
       id="linearGradient3779">
      <stop
         offset="0"
         style="stop-color:#bd5d00;stop-opacity:1;"
         id="stop3781" />
    </linearGradient>
    <linearGradient
       osb:paint="solid"
       id="linearGradient3775">
      <stop
         offset="0"
         style="stop-color:#8e3f00;stop-opacity:1;"
         id="stop3777" />
    </linearGradient>
    <inkscape:perspective
       sodipodi:type="inkscape:persp3d"
       inkscape:vp_x="0 : 0.5 : 1"
       inkscape:vp_y="0 : 1000 : 0"
       inkscape:vp_z="1 : 0.5 : 1"
       inkscape:persp3d-origin="0.5 : 0.333333 : 1"
       id="perspective2884" />
    <inkscape:perspective
       id="perspective10"
       inkscape:persp3d-origin="372.047 : 350.787 : 1"
       inkscape:vp_z="744.094 : 526.181 : 1"
       inkscape:vp_y="0 : 1000 : 0"
       inkscape:vp_x="0 : 526.181 : 1"
       sodipodi:type="inkscape:persp3d" />
  </defs>
  <sodipodi:namedview
     id="base"
     pagecolor="#ffffff"
     bordercolor="#666666"
     borderopacity="1.0"
     inkscape:pageopacity="0.0"
     inkscape:pageshadow="2"
     inkscape:zoom="0.7875"
     inkscape:cx="272.563"
     inkscape:cy="264.495"
     inkscape:document-units="px"
     inkscape:current-layer="layer1"
     showgrid="false"
     fit-margin-top="0"
     fit-margin-left="0"
     fit-margin-right="0"
     fit-margin-bottom="0"
     inkscape:window-width="1664"
     inkscape:window-height="586"
     inkscape:window-x="-8"
     inkscape:window-y="395"
     inkscape:window-maximized="0" />
  <metadata
     id="metadata7">
    <rdf:RDF>
      <cc:Work
         rdf:about="">
        <dc:format>image/svg+xml</dc:format>
        <dc:type
           rdf:resource="http://purl.org/dc/dcmitype/StillImage" />
        <dc:title></dc:title>
      </cc:Work>
    </rdf:RDF>
  </metadata>
  <g
     inkscape:label="Layer 1"
     inkscape:groupmode="layer"
     id="layer1"
     transform="translate(-39.7126,-218.645)">
    <g
       id="layer1-9"
       inkscape:label="Layer 1"
       transform="translate(2.27513,191.614)">
      <path
         id="path2896"
         d="M 260,387.362 240,422.362 210,467.362 205,507.362 205,527.362 215,547.362 230,562.362 235,587.362 245,597.362 250,622.362 265,662.362 265,677.362 380,637.362 370,602.362 375,567.362 395,537.362 385,507.362 385,467.362 410,417.362 445,397.362 480,397.362 455,377.362 395,352.362 260,352.362 225,362.362 190,387.362 150,437.362 95,462.362 75,492.362 45,522.362 40,602.362 80,637.362 95,642.362 125,662.362 145,667.362 180,667.362 190,632.362 190,602.362 175,582.362 140,567.362 130,552.362 135,537.362 190,537.362 205,527.362"
         style="fill:none;stroke:#00ff00;stroke-width:5;stroke-linecap:butt;stroke-linejoin:miter;stroke-miterlimit:4;stroke-opacity:1;stroke-dasharray:none"
         inkscape:connector-curvature="0" />
      <path
         id="path2898"
         d="M 480,397.362 510,412.362 530,437.362 535,467.362 520,517.362 510,532.362 510,572.362 485,632.362 470,667.362 460,697.362 380,732.362 335,732.362 225,757.362 155,757.362 120,747.362 105,732.362 105,692.362 110,677.362 125,667.362 180,667.362 190,677.362 200,702.362 230,697.362 265,677.362"
         style="fill:none;stroke:#000000;stroke-width:1px;stroke-linecap:butt;stroke-linejoin:miter;stroke-opacity:1"
         inkscape:connector-curvature="0" />
      <path
         style="fill:none;stroke:#00ff00;stroke-width:5;stroke-linecap:butt;stroke-linejoin:miter;stroke-miterlimit:4;stroke-opacity:1;stroke-dasharray:none"
         d="M 480,397.362 510,412.362 530,437.362 535,467.362 520,517.362 510,532.362 510,572.362 485,632.362 470,667.362 460,697.362 380,732.362 335,732.362 225,757.362 155,757.362 120,747.362 105,732.362 105,692.362 110,677.362 125,667.362 180,667.362 190,677.362 200,702.362 230,697.362 265,677.362"
         id="path2900"
         inkscape:connector-curvature="0" />
      <path
         id="path3678"
         d="M 260,352.362 285,382.362 325,367.362 360,347.362 380,317.362 400,292.362 410,262.362 405,222.362 380,182.362 355,167.362 295,172.362 270,192.362 250,227.362 245,262.362 245,312.362 260,352.362 z"
         style="fill:none;stroke:#00ff00;stroke-width:5;stroke-linecap:butt;stroke-linejoin:miter;stroke-miterlimit:4;stroke-opacity:1;stroke-dasharray:none"
         inkscape:connector-curvature="0" />
      <path
         sodipodi:nodetypes="cc"
         id="path3680"
         d="M 395,297.362 385,352.362"
         style="fill:none;stroke:#00ff00;stroke-width:5;stroke-linecap:butt;stroke-linejoin:miter;stroke-miterlimit:4;stroke-opacity:1;stroke-dasharray:none"
         inkscape:connector-curvature="0" />
      <path
         id="path3682"
         d="M 480.179,642.362 480,702.362 510,752.362 580,917.362 405,957.362 360,882.362 260,962.362 45,922.362 70,897.362 140,837.362 225,787.362 250,777.362 255,762.362 250,752.362"
         style="fill:none;stroke:#00ff00;stroke-width:5;stroke-linecap:butt;stroke-linejoin:miter;stroke-miterlimit:4;stroke-opacity:1;stroke-dasharray:none"
         inkscape:connector-curvature="0" />
      <path
         id="path3684"
         d="M 255,767.362 290,792.362 335,807.362 395,807.362 455,777.362 505,742.362 480,702.362 405,732.362 380,732.362"
         style="fill:none;stroke:#00ff00;stroke-width:3;stroke-linecap:butt;stroke-linejoin:miter;stroke-miterlimit:4;stroke-opacity:1;stroke-dasharray:none"
         inkscape:connector-curvature="0" />
      <path
         id="path3686"
         d="M 380,732.362 390,742.362 395,762.362 385,782.362 370,797.362 335,807.362 300,782.362 295,762.362 300,747.362 310,737.362 320,737.362 315,742.362 305,757.362 310,772.362 325,787.362 335,802.362 345,787.362 365,782.362 375,772.362 385,757.362 385,747.362 375,732.362 380,732.362 z"
         style="fill:none;stroke:#ff0000;stroke-width:3;stroke-linecap:butt;stroke-linejoin:miter;stroke-miterlimit:4;stroke-opacity:1;stroke-dasharray:none"
         inkscape:connector-curvature="0" />
      <path
         sodipodi:nodetypes="ccccccccccccccccccc"
         id="path3688"
         d="M 335.179,797.005 325,777.362 315,772.362 325,772.362 330,762.362 320,762.362 C 320,762.362 335,752.362 335,752.362 L 315,757.362 350,737.362 365,737.362 370,742.362 380,747.362 360,757.362 370,757.362 355,767.362 355,777.362 365,777.362 340,782.362 335.179,797.005 z"
         style="fill:none;stroke:#ff0000;stroke-width:3;stroke-linecap:butt;stroke-linejoin:miter;stroke-miterlimit:4;stroke-opacity:1;stroke-dasharray:none"
         inkscape:connector-curvature="0" />
      <path
         id="path3690"
         d="M 335,807.362 395,802.362 385,792.362 395,777.362 410,787.362 415,797.362 435,787.362 425,777.362 405,772.362 410,757.362 425,757.362 430,762.362 425,772.362 440,767.362 460,767.362 450,757.362 430,747.362 410,747.362 415,732.362 435,732.362 440,742.362 445,722.362 460,722.362 450,717.362"
         style="fill:none;stroke:#ff0000;stroke-width:1px;stroke-linecap:butt;stroke-linejoin:miter;stroke-opacity:1"
         inkscape:connector-curvature="0" />
      <path
         id="path3692"
         d="M 306.071,788.791 310,797.362 300,787.362 285,772.362 275,777.362 270,767.362 285,762.362 280,752.362 300,747.362"
         style="fill:none;stroke:#ff0000;stroke-width:1px;stroke-linecap:butt;stroke-linejoin:miter;stroke-opacity:1"
         inkscape:connector-curvature="0" />
      <path
         id="path3694"
         d="M 268.953,406.622 235,452.362 225,472.362 225,492.362 235,512.362 255,532.362 270,532.362 260,517.362 260,502.362 240,482.362 240,452.362 268.953,406.622 z"
         style="fill:none;stroke:#ff0000;stroke-width:3;stroke-linecap:butt;stroke-linejoin:miter;stroke-miterlimit:4;stroke-opacity:1;stroke-dasharray:none"
         inkscape:connector-curvature="0" />
      <path
         sodipodi:nodetypes="ccccccccccccc"
         id="path3696"
         d="M 270,532.362 285,507.362 320,507.362 340,487.362 350,472.362 360,447.362 350,407.362 365,452.362 365,467.362 350,502.362 320,522.362 300,532.362 270,532.362 z"
         style="fill:none;stroke:#ff0000;stroke-width:3;stroke-linecap:butt;stroke-linejoin:miter;stroke-miterlimit:4;stroke-opacity:1;stroke-dasharray:none"
         inkscape:connector-curvature="0" />
      <path
         id="path3698"
         d="M 145,565.934 150,492.362 170,317.362 220,77.3622 245,47.3622 270,32.3622 240,142.362 210,262.362 190,387.362 170,577.362 145,565.934 z"
         style="fill:none;stroke:#0000ff;stroke-width:5;stroke-linecap:butt;stroke-linejoin:miter;stroke-miterlimit:4;stroke-opacity:1;stroke-dasharray:none"
         inkscape:connector-curvature="0" />
      <path
         sodipodi:nodetypes="cccccc"
         id="path3700"
         d="M 385,352.362 335,417.362 290,432.362 280,422.362 270,397.362 260,352.362"
         style="fill:none;stroke:#00ff00;stroke-width:1px;stroke-linecap:butt;stroke-linejoin:miter;stroke-opacity:1"
         inkscape:connector-curvature="0" />
      <path
         id="path3702"
         d="M 249.643,432.719 260,432.362 285,452.362 290,487.362 295,457.362 310,447.362 330,437.362 350,442.362 360,447.362"
         style="fill:none;stroke:#00ff00;stroke-width:1px;stroke-linecap:butt;stroke-linejoin:miter;stroke-opacity:1"
         inkscape:connector-curvature="0" />
      <path
         sodipodi:nodetypes="ccccccccccccccccccc"
         id="path3704"
         d="M 230,567.362 245,557.362 270,532.362 330,557.362 370,552.362 390,542.362 375,567.362 370,597.362 330,587.362 280,562.362 275,557.362 270,567.362 255,587.362 245,597.362 255,632.362 275,617.362 280,602.362 295,612.362 375,627.362"
         style="fill:none;stroke:#00ff00;stroke-width:3;stroke-linecap:butt;stroke-linejoin:miter;stroke-miterlimit:4;stroke-opacity:1;stroke-dasharray:none"
         inkscape:connector-curvature="0" />
      <path
         id="path3706"
         d="M 250.714,771.826 300,817.362 340,872.362 360,882.362 385,877.362 420,832.362 520,772.362"
         style="fill:none;stroke:#00ff00;stroke-width:3;stroke-linecap:butt;stroke-linejoin:miter;stroke-miterlimit:4;stroke-opacity:1;stroke-dasharray:none"
         inkscape:connector-curvature="0" />
      <path
         id="path3708"
         d="M 145.462,573.045 110,582.362 90,607.362 95,637.362 100,642.362"
         style="fill:none;stroke:#00ff00;stroke-width:3;stroke-linecap:butt;stroke-linejoin:miter;stroke-miterlimit:4;stroke-opacity:1;stroke-dasharray:none"
         inkscape:connector-curvature="0" />
      <path
         id="path3712"
         d="M 130,547.362 110,532.362 90,532.362"
         style="fill:none;stroke:#00ff00;stroke-width:3;stroke-linecap:butt;stroke-linejoin:miter;stroke-miterlimit:4;stroke-opacity:1;stroke-dasharray:none"
         inkscape:connector-curvature="0" />
      <path
         id="path3714"
         d="M 135.866,542.235 125,527.362 110,517.362"
         style="fill:none;stroke:#00ff00;stroke-width:3;stroke-linecap:butt;stroke-linejoin:miter;stroke-miterlimit:4;stroke-opacity:1;stroke-dasharray:none"
         inkscape:connector-curvature="0" />
      <path
         id="path3716"
         d="M 395,537.362 410,547.362 425,547.362 445,532.362 465,527.362 485,532.362 510,532.362"
         style="fill:none;stroke:#00ff00;stroke-width:3;stroke-linecap:butt;stroke-linejoin:miter;stroke-miterlimit:4;stroke-opacity:1;stroke-dasharray:none"
         inkscape:connector-curvature="0" />
      <path
         id="path3718"
         d="M 380,637.362 415,637.362"
         style="fill:none;stroke:#00ff00;stroke-width:3;stroke-linecap:butt;stroke-linejoin:miter;stroke-miterlimit:4;stroke-opacity:1;stroke-dasharray:none"
         inkscape:connector-curvature="0" />
      <path
         id="path3720"
         d="M 380,637.362 410,652.362"
         style="fill:none;stroke:#00ff00;stroke-width:3;stroke-linecap:butt;stroke-linejoin:miter;stroke-miterlimit:4;stroke-opacity:1;stroke-dasharray:none"
         inkscape:connector-curvature="0" />
      <path
         id="path3722"
         d="M 225,702.362 215,722.362 220,757.362 210,757.362 210,732.362 210,712.362 220,702.362 210,702.362 200,717.362 200,757.362 195,757.362 190,732.362 195,717.362 205,702.362 200,702.362 185,717.362 185,747.362 190,757.362"
         style="fill:none;stroke:#00ff00;stroke-width:3;stroke-linecap:butt;stroke-linejoin:miter;stroke-miterlimit:4;stroke-opacity:1;stroke-dasharray:none"
         inkscape:connector-curvature="0" />
    </g>
  </g>
</svg>
