<?xml version="1.0" encoding="UTF-8" standalone="no"?>
<!-- Created with Inkscape (http://www.inkscape.org/) -->

<svg
   xmlns:osb="http://www.openswatchbook.org/uri/2009/osb"
   xmlns:dc="http://purl.org/dc/elements/1.1/"
   xmlns:cc="http://creativecommons.org/ns#"
   xmlns:rdf="http://www.w3.org/1999/02/22-rdf-syntax-ns#"
   xmlns:svg="http://www.w3.org/2000/svg"
   xmlns="http://www.w3.org/2000/svg"
   xmlns:sodipodi="http://sodipodi.sourceforge.net/DTD/sodipodi-0.dtd"
   xmlns:inkscape="http://www.inkscape.org/namespaces/inkscape"
   width="546.031"
   height="938"
   id="svg2"
   version="1.1"
   inkscape:version="0.47+devel r"
   sodipodi:docname="xn.svg">
  <defs
     id="defs4">
    <linearGradient
       osb:paint="solid"
       id="linearGradient3905">
      <stop
         offset="0"
         style="stop-color:#313131;stop-opacity:1;"
         id="stop3907" />
    </linearGradient>
    <linearGradient
       osb:paint="solid"
       id="linearGradient3901">
      <stop
         offset="0"
         style="stop-color:#1e1e1e;stop-opacity:1;"
         id="stop3903" />
    </linearGradient>
    <linearGradient
       osb:paint="solid"
       id="linearGradient3897">
      <stop
         offset="0"
         style="stop-color:#b1b1b1;stop-opacity:1;"
         id="stop3899" />
    </linearGradient>
    <linearGradient
       osb:paint="solid"
       id="linearGradient3893">
      <stop
         offset="0"
         style="stop-color:#9c9c9c;stop-opacity:1;"
         id="stop3895" />
    </linearGradient>
    <linearGradient
       osb:paint="solid"
       id="linearGradient3878">
      <stop
         offset="0"
         style="stop-color:#21466b;stop-opacity:1;"
         id="stop3880" />
    </linearGradient>
    <linearGradient
       osb:paint="solid"
       id="linearGradient3874">
      <stop
         offset="0"
         style="stop-color:#1f3950;stop-opacity:1;"
         id="stop3876" />
    </linearGradient>
    <linearGradient
       osb:paint="solid"
       id="linearGradient3870">
      <stop
         offset="0"
         style="stop-color:#4c3450;stop-opacity:1;"
         id="stop3872" />
    </linearGradient>
    <linearGradient
       osb:paint="solid"
       id="linearGradient3866">
      <stop
         offset="0"
         style="stop-color:#371f3d;stop-opacity:1;"
         id="stop3868" />
    </linearGradient>
    <linearGradient
       osb:paint="solid"
       id="linearGradient3851">
      <stop
         offset="0"
         style="stop-color:#22446d;stop-opacity:1;"
         id="stop3853" />
    </linearGradient>
    <linearGradient
       osb:paint="solid"
       id="linearGradient3836">
      <stop
         offset="0"
         style="stop-color:#122b4e;stop-opacity:1;"
         id="stop3838" />
    </linearGradient>
    <linearGradient
       osb:paint="solid"
       id="linearGradient3821">
      <stop
         offset="0"
         style="stop-color:#920000;stop-opacity:1;"
         id="stop3823" />
    </linearGradient>
    <linearGradient
       osb:paint="solid"
       id="linearGradient3813">
      <stop
         offset="0"
         style="stop-color:#700000;stop-opacity:1;"
         id="stop3815" />
      <stop
         id="stop3817"
         style="stop-color:#700000;stop-opacity:1;"
         offset="1" />
    </linearGradient>
    <linearGradient
       osb:paint="solid"
       id="linearGradient3798">
      <stop
         offset="0"
         style="stop-color:#38650b;stop-opacity:1;"
         id="stop3800" />
    </linearGradient>
    <linearGradient
       osb:paint="solid"
       id="linearGradient3783">
      <stop
         offset="0"
         style="stop-color:#214103;stop-opacity:1;"
         id="stop3785" />
    </linearGradient>
    <linearGradient
       osb:paint="solid"
       id="linearGradient3779">
      <stop
         offset="0"
         style="stop-color:#bd5d00;stop-opacity:1;"
         id="stop3781" />
    </linearGradient>
    <linearGradient
       osb:paint="solid"
       id="linearGradient3775">
      <stop
         offset="0"
         style="stop-color:#8e3f00;stop-opacity:1;"
         id="stop3777" />
    </linearGradient>
    <inkscape:perspective
       sodipodi:type="inkscape:persp3d"
       inkscape:vp_x="0 : 0.5 : 1"
       inkscape:vp_y="0 : 1000 : 0"
       inkscape:vp_z="1 : 0.5 : 1"
       inkscape:persp3d-origin="0.5 : 0.333333 : 1"
       id="perspective2884" />
    <inkscape:perspective
       id="perspective10"
       inkscape:persp3d-origin="372.047 : 350.787 : 1"
       inkscape:vp_z="744.094 : 526.181 : 1"
       inkscape:vp_y="0 : 1000 : 0"
       inkscape:vp_x="0 : 526.181 : 1"
       sodipodi:type="inkscape:persp3d" />
  </defs>
  <sodipodi:namedview
     id="base"
     pagecolor="#ffffff"
     bordercolor="#666666"
     borderopacity="1.0"
     inkscape:pageopacity="0.0"
     inkscape:pageshadow="2"
     inkscape:zoom="0.7875"
     inkscape:cx="272.563"
     inkscape:cy="213.701"
     inkscape:document-units="px"
     inkscape:current-layer="layer1"
     showgrid="false"
     fit-margin-top="0"
     fit-margin-left="0"
     fit-margin-right="0"
     fit-margin-bottom="0"
     inkscape:window-width="1664"
     inkscape:window-height="586"
     inkscape:window-x="-1"
     inkscape:window-y="291"
     inkscape:window-maximized="0" />
  <metadata
     id="metadata7">
    <rdf:RDF>
      <cc:Work
         rdf:about="">
        <dc:format>image/svg+xml</dc:format>
        <dc:type
           rdf:resource="http://purl.org/dc/dcmitype/StillImage" />
        <dc:title></dc:title>
      </cc:Work>
    </rdf:RDF>
  </metadata>
  <g
     inkscape:label="Layer 1"
     inkscape:groupmode="layer"
     id="layer1"
     transform="translate(-39.7126,-218.645)">
    <path
       inkscape:connector-curvature="0"
       style="fill:none;stroke:#00ff00;stroke-width:5;stroke-linecap:butt;stroke-linejoin:miter;stroke-miterlimit:4;stroke-opacity:1;stroke-dasharray:none"
       d="M 262.275,578.976 242.275,613.976 212.275,658.976 207.275,698.976 207.275,718.976 217.275,738.976 232.275,753.976 237.275,778.976 247.275,788.976 252.275,813.976 267.275,853.976 267.275,868.976 382.275,828.976 372.275,793.976 377.275,758.976 397.275,728.976 387.275,698.976 387.275,658.976 412.275,608.976 447.275,588.976 482.275,588.976 457.275,568.976 397.275,543.976 262.275,543.976 227.275,553.976 192.275,578.976 152.275,628.976 97.2751,653.976 77.2751,683.976 47.2751,713.976 42.2751,793.976 82.2751,828.976 97.2751,833.976 127.275,853.976 147.275,858.976 182.275,858.976 192.275,823.976 192.275,793.976 177.275,773.976 142.275,758.976 132.275,743.976 137.275,728.976 192.275,728.976 207.275,718.976"
       id="path2896" />
    <path
       inkscape:connector-curvature="0"
       style="fill:none;stroke:#000000;stroke-width:1px;stroke-linecap:butt;stroke-linejoin:miter;stroke-opacity:1"
       d="M 482.275,588.976 512.275,603.976 532.275,628.976 537.275,658.976 522.275,708.976 512.275,723.976 512.275,763.976 487.275,823.976 472.275,858.976 462.275,888.976 382.275,923.976 337.275,923.976 227.275,948.976 157.275,948.976 122.275,938.976 107.275,923.976 107.275,883.976 112.275,868.976 127.275,858.976 182.275,858.976 192.275,868.976 202.275,893.976 232.275,888.976 267.275,868.976"
       id="path2898" />
    <path
       inkscape:connector-curvature="0"
       id="path2900"
       d="M 482.275,588.976 512.275,603.976 532.275,628.976 537.275,658.976 522.275,708.976 512.275,723.976 512.275,763.976 487.275,823.976 472.275,858.976 462.275,888.976 382.275,923.976 337.275,923.976 227.275,948.976 157.275,948.976 122.275,938.976 107.275,923.976 107.275,883.976 112.275,868.976 127.275,858.976 182.275,858.976 192.275,868.976 202.275,893.976 232.275,888.976 267.275,868.976"
       style="fill:none;stroke:#00ff00;stroke-width:5;stroke-linecap:butt;stroke-linejoin:miter;stroke-miterlimit:4;stroke-opacity:1;stroke-dasharray:none" />
    <path
       inkscape:connector-curvature="0"
       style="fill:none;stroke:#00ff00;stroke-width:5;stroke-linecap:butt;stroke-linejoin:miter;stroke-miterlimit:4;stroke-opacity:1;stroke-dasharray:none"
       d="M 262.275,543.976 287.275,573.976 327.275,558.976 362.275,538.976 382.275,508.976 402.275,483.976 412.275,453.976 407.275,413.976 382.275,373.976 357.275,358.976 297.275,363.976 272.275,383.976 252.275,418.976 247.275,453.976 247.275,503.976 262.275,543.976 z"
       id="path3678" />
    <path
       inkscape:connector-curvature="0"
       style="fill:none;stroke:#00ff00;stroke-width:5;stroke-linecap:butt;stroke-linejoin:miter;stroke-miterlimit:4;stroke-opacity:1;stroke-dasharray:none"
       d="M 397.275,488.976 387.275,543.976"
       id="path3680"
       sodipodi:nodetypes="cc" />
    <path
       inkscape:connector-curvature="0"
       style="fill:none;stroke:#00ff00;stroke-width:5;stroke-linecap:butt;stroke-linejoin:miter;stroke-miterlimit:4;stroke-opacity:1;stroke-dasharray:none"
       d="M 482.454,833.976 482.275,893.976 512.275,943.976 582.275,1108.98 407.275,1148.98 362.275,1073.98 262.275,1153.98 47.2751,1113.98 72.2751,1088.98 142.275,1028.98 227.275,978.976 252.275,968.976 257.275,953.976 252.275,943.976"
       id="path3682" />
    <path
       inkscape:connector-curvature="0"
       style="fill:none;stroke:#00ff00;stroke-width:3;stroke-linecap:butt;stroke-linejoin:miter;stroke-miterlimit:4;stroke-opacity:1;stroke-dasharray:none"
       d="M 257.275,958.976 292.275,983.976 337.275,998.976 397.275,998.976 457.275,968.976 507.275,933.976 482.275,893.976 407.275,923.976 382.275,923.976"
       id="path3684" />
    <path
       inkscape:connector-curvature="0"
       style="fill:none;stroke:#ff0000;stroke-width:3;stroke-linecap:butt;stroke-linejoin:miter;stroke-miterlimit:4;stroke-opacity:1;stroke-dasharray:none"
       d="M 382.275,923.976 392.275,933.976 397.275,953.976 387.275,973.976 372.275,988.976 337.275,998.976 302.275,973.976 297.275,953.976 302.275,938.976 312.275,928.976 322.275,928.976 317.275,933.976 307.275,948.976 312.275,963.976 327.275,978.976 337.275,993.976 347.275,978.976 367.275,973.976 377.275,963.976 387.275,948.976 387.275,938.976 377.275,923.976 382.275,923.976 z"
       id="path3686" />
    <path
       inkscape:connector-curvature="0"
       style="fill:none;stroke:#ff0000;stroke-width:3;stroke-linecap:butt;stroke-linejoin:miter;stroke-miterlimit:4;stroke-opacity:1;stroke-dasharray:none"
       d="M 337.454,988.619 327.275,968.976 317.275,963.976 327.275,963.976 332.275,953.976 322.275,953.976 C 322.275,953.976 337.275,943.976 337.275,943.976 L 317.275,948.976 352.275,928.976 367.275,928.976 372.275,933.976 382.275,938.976 362.275,948.976 372.275,948.976 357.275,958.976 357.275,968.976 367.275,968.976 342.275,973.976 337.454,988.619 z"
       id="path3688"
       sodipodi:nodetypes="ccccccccccccccccccc" />
    <path
       inkscape:connector-curvature="0"
       style="fill:none;stroke:#ff0000;stroke-width:1px;stroke-linecap:butt;stroke-linejoin:miter;stroke-opacity:1"
       d="M 337.275,998.976 397.275,993.976 387.275,983.976 397.275,968.976 412.275,978.976 417.275,988.976 437.275,978.976 427.275,968.976 407.275,963.976 412.275,948.976 427.275,948.976 432.275,953.976 427.275,963.976 442.275,958.976 462.275,958.976 452.275,948.976 432.275,938.976 412.275,938.976 417.275,923.976 437.275,923.976 442.275,933.976 447.275,913.976 462.275,913.976 452.275,908.976"
       id="path3690" />
    <path
       inkscape:connector-curvature="0"
       style="fill:none;stroke:#ff0000;stroke-width:1px;stroke-linecap:butt;stroke-linejoin:miter;stroke-opacity:1"
       d="M 308.346,980.405 312.275,988.976 302.275,978.976 287.275,963.976 277.275,968.976 272.275,958.976 287.275,953.976 282.275,943.976 302.275,938.976"
       id="path3692" />
    <path
       inkscape:connector-curvature="0"
       style="fill:none;stroke:#ff0000;stroke-width:3;stroke-linecap:butt;stroke-linejoin:miter;stroke-miterlimit:4;stroke-opacity:1;stroke-dasharray:none"
       d="M 271.228,598.236 237.275,643.976 227.275,663.976 227.275,683.976 237.275,703.976 257.275,723.976 272.275,723.976 262.275,708.976 262.275,693.976 242.275,673.976 242.275,643.976 271.228,598.236 z"
       id="path3694" />
    <path
       inkscape:connector-curvature="0"
       style="fill:none;stroke:#ff0000;stroke-width:3;stroke-linecap:butt;stroke-linejoin:miter;stroke-miterlimit:4;stroke-opacity:1;stroke-dasharray:none"
       d="M 272.275,723.976 287.275,698.976 322.275,698.976 342.275,678.976 352.275,663.976 362.275,638.976 352.275,598.976 367.275,643.976 367.275,658.976 352.275,693.976 322.275,713.976 302.275,723.976 272.275,723.976 z"
       id="path3696"
       sodipodi:nodetypes="ccccccccccccc" />
    <path
       inkscape:connector-curvature="0"
       style="fill:none;stroke:#0000ff;stroke-width:5;stroke-linecap:butt;stroke-linejoin:miter;stroke-miterlimit:4;stroke-opacity:1;stroke-dasharray:none"
       d="M 147.275,757.548 152.275,683.976 172.275,508.976 222.275,268.976 247.275,238.976 272.275,223.976 242.275,333.976 212.275,453.976 192.275,578.976 172.275,768.976 147.275,757.548 z"
       id="path3698" />
    <path
       inkscape:connector-curvature="0"
       style="fill:none;stroke:#00ff00;stroke-width:1px;stroke-linecap:butt;stroke-linejoin:miter;stroke-opacity:1"
       d="M 387.275,543.976 337.275,608.976 292.275,623.976 282.275,613.976 272.275,588.976 262.275,543.976"
       id="path3700"
       sodipodi:nodetypes="cccccc" />
    <path
       inkscape:connector-curvature="0"
       style="fill:none;stroke:#00ff00;stroke-width:1px;stroke-linecap:butt;stroke-linejoin:miter;stroke-opacity:1"
       d="M 251.918,624.333 262.275,623.976 287.275,643.976 292.275,678.976 297.275,648.976 312.275,638.976 332.275,628.976 352.275,633.976 362.275,638.976"
       id="path3702" />
    <path
       inkscape:connector-curvature="0"
       style="fill:none;stroke:#00ff00;stroke-width:3;stroke-linecap:butt;stroke-linejoin:miter;stroke-miterlimit:4;stroke-opacity:1;stroke-dasharray:none"
       d="M 232.275,758.976 247.275,748.976 272.275,723.976 332.275,748.976 372.275,743.976 392.275,733.976 377.275,758.976 372.275,788.976 332.275,778.976 282.275,753.976 277.275,748.976 272.275,758.976 257.275,778.976 247.275,788.976 257.275,823.976 277.275,808.976 282.275,793.976 297.275,803.976 377.275,818.976"
       id="path3704"
       sodipodi:nodetypes="ccccccccccccccccccc" />
    <path
       inkscape:connector-curvature="0"
       style="fill:none;stroke:#00ff00;stroke-width:3;stroke-linecap:butt;stroke-linejoin:miter;stroke-miterlimit:4;stroke-opacity:1;stroke-dasharray:none"
       d="M 147.737,764.659 112.275,773.976 92.2751,798.976 97.2751,828.976 102.275,833.976"
       id="path3708" />
    <path
       inkscape:connector-curvature="0"
       style="fill:none;stroke:#00ff00;stroke-width:3;stroke-linecap:butt;stroke-linejoin:miter;stroke-miterlimit:4;stroke-opacity:1;stroke-dasharray:none"
       d="M 132.275,738.976 112.275,723.976 92.2751,723.976"
       id="path3712" />
    <path
       inkscape:connector-curvature="0"
       style="fill:none;stroke:#00ff00;stroke-width:3;stroke-linecap:butt;stroke-linejoin:miter;stroke-miterlimit:4;stroke-opacity:1;stroke-dasharray:none"
       d="M 138.141,733.849 127.275,718.976 112.275,708.976"
       id="path3714" />
    <path
       inkscape:connector-curvature="0"
       style="fill:none;stroke:#00ff00;stroke-width:3;stroke-linecap:butt;stroke-linejoin:miter;stroke-miterlimit:4;stroke-opacity:1;stroke-dasharray:none"
       d="M 397.275,728.976 412.275,738.976 427.275,738.976 447.275,723.976 467.275,718.976 487.275,723.976 512.275,723.976"
       id="path3716" />
    <path
       inkscape:connector-curvature="0"
       style="fill:none;stroke:#00ff00;stroke-width:3;stroke-linecap:butt;stroke-linejoin:miter;stroke-miterlimit:4;stroke-opacity:1;stroke-dasharray:none"
       d="M 382.275,828.976 417.275,828.976"
       id="path3718" />
    <path
       inkscape:connector-curvature="0"
       style="fill:none;stroke:#00ff00;stroke-width:3;stroke-linecap:butt;stroke-linejoin:miter;stroke-miterlimit:4;stroke-opacity:1;stroke-dasharray:none"
       d="M 382.275,828.976 412.275,843.976"
       id="path3720" />
    <path
       inkscape:connector-curvature="0"
       style="fill:none;stroke:#00ff00;stroke-width:3;stroke-linecap:butt;stroke-linejoin:miter;stroke-miterlimit:4;stroke-opacity:1;stroke-dasharray:none"
       d="M 227.275,893.976 217.275,913.976 222.275,948.976 212.275,948.976 212.275,923.976 212.275,903.976 222.275,893.976 212.275,893.976 202.275,908.976 202.275,948.976 197.275,948.976 192.275,923.976 197.275,908.976 207.275,893.976 202.275,893.976 187.275,908.976 187.275,938.976 192.275,948.976"
       id="path3722" />
  </g>
</svg>
