<?xml version="1.0" encoding="UTF-8" standalone="no"?>
<!-- Created with Inkscape (http://www.inkscape.org/) -->

<svg
   xmlns:osb="http://www.openswatchbook.org/uri/2009/osb"
   xmlns:dc="http://purl.org/dc/elements/1.1/"
   xmlns:cc="http://creativecommons.org/ns#"
   xmlns:rdf="http://www.w3.org/1999/02/22-rdf-syntax-ns#"
   xmlns:svg="http://www.w3.org/2000/svg"
   xmlns="http://www.w3.org/2000/svg"
   xmlns:xlink="http://www.w3.org/1999/xlink"
   xmlns:sodipodi="http://sodipodi.sourceforge.net/DTD/sodipodi-0.dtd"
   xmlns:inkscape="http://www.inkscape.org/namespaces/inkscape"
   width="546.031"
   height="938"
   id="svg2"
   version="1.1"
   inkscape:version="0.47+devel r"
   sodipodi:docname="xn.svg">
  <defs
     id="defs4">
    <linearGradient
       osb:paint="solid"
       id="linearGradient3905">
      <stop
         offset="0"
         style="stop-color:#313131;stop-opacity:1;"
         id="stop3907" />
    </linearGradient>
    <linearGradient
       osb:paint="solid"
       id="linearGradient3901">
      <stop
         offset="0"
         style="stop-color:#1e1e1e;stop-opacity:1;"
         id="stop3903" />
    </linearGradient>
    <linearGradient
       osb:paint="solid"
       id="linearGradient3897">
      <stop
         offset="0"
         style="stop-color:#b1b1b1;stop-opacity:1;"
         id="stop3899" />
    </linearGradient>
    <linearGradient
       osb:paint="solid"
       id="linearGradient3893">
      <stop
         offset="0"
         style="stop-color:#9c9c9c;stop-opacity:1;"
         id="stop3895" />
    </linearGradient>
    <linearGradient
       osb:paint="solid"
       id="linearGradient3878">
      <stop
         offset="0"
         style="stop-color:#21466b;stop-opacity:1;"
         id="stop3880" />
    </linearGradient>
    <linearGradient
       osb:paint="solid"
       id="linearGradient3874">
      <stop
         offset="0"
         style="stop-color:#1f3950;stop-opacity:1;"
         id="stop3876" />
    </linearGradient>
    <linearGradient
       osb:paint="solid"
       id="linearGradient3870">
      <stop
         offset="0"
         style="stop-color:#4c3450;stop-opacity:1;"
         id="stop3872" />
    </linearGradient>
    <linearGradient
       osb:paint="solid"
       id="linearGradient3866">
      <stop
         offset="0"
         style="stop-color:#371f3d;stop-opacity:1;"
         id="stop3868" />
    </linearGradient>
    <linearGradient
       osb:paint="solid"
       id="linearGradient3851">
      <stop
         offset="0"
         style="stop-color:#22446d;stop-opacity:1;"
         id="stop3853" />
    </linearGradient>
    <linearGradient
       osb:paint="solid"
       id="linearGradient3836">
      <stop
         offset="0"
         style="stop-color:#122b4e;stop-opacity:1;"
         id="stop3838" />
    </linearGradient>
    <linearGradient
       osb:paint="solid"
       id="linearGradient3821">
      <stop
         offset="0"
         style="stop-color:#920000;stop-opacity:1;"
         id="stop3823" />
    </linearGradient>
    <linearGradient
       osb:paint="solid"
       id="linearGradient3813">
      <stop
         offset="0"
         style="stop-color:#700000;stop-opacity:1;"
         id="stop3815" />
      <stop
         id="stop3817"
         style="stop-color:#700000;stop-opacity:1;"
         offset="1" />
    </linearGradient>
    <linearGradient
       osb:paint="solid"
       id="linearGradient3798">
      <stop
         offset="0"
         style="stop-color:#38650b;stop-opacity:1;"
         id="stop3800" />
    </linearGradient>
    <linearGradient
       osb:paint="solid"
       id="linearGradient3783">
      <stop
         offset="0"
         style="stop-color:#214103;stop-opacity:1;"
         id="stop3785" />
    </linearGradient>
    <linearGradient
       osb:paint="solid"
       id="linearGradient3779">
      <stop
         offset="0"
         style="stop-color:#bd5d00;stop-opacity:1;"
         id="stop3781" />
    </linearGradient>
    <linearGradient
       osb:paint="solid"
       id="linearGradient3775">
      <stop
         offset="0"
         style="stop-color:#8e3f00;stop-opacity:1;"
         id="stop3777" />
    </linearGradient>
    <inkscape:perspective
       sodipodi:type="inkscape:persp3d"
       inkscape:vp_x="0 : 0.5 : 1"
       inkscape:vp_y="0 : 1000 : 0"
       inkscape:vp_z="1 : 0.5 : 1"
       inkscape:persp3d-origin="0.5 : 0.333333 : 1"
       id="perspective2884" />
    <inkscape:perspective
       id="perspective10"
       inkscape:persp3d-origin="372.047 : 350.787 : 1"
       inkscape:vp_z="744.094 : 526.181 : 1"
       inkscape:vp_y="0 : 1000 : 0"
       inkscape:vp_x="0 : 526.181 : 1"
       sodipodi:type="inkscape:persp3d" />
    <inkscape:perspective
       id="perspective2971"
       inkscape:persp3d-origin="0.5 : 0.333333 : 1"
       inkscape:vp_z="1 : 0.5 : 1"
       inkscape:vp_y="0 : 1000 : 0"
       inkscape:vp_x="0 : 0.5 : 1"
       sodipodi:type="inkscape:persp3d" />
    <linearGradient
       id="linearGradient3698">
      <stop
         style="stop-color:#000000;stop-opacity:1;"
         offset="0"
         id="stop3700" />
      <stop
         id="stop3706"
         offset="0.5"
         style="stop-color:#0f3f6f;stop-opacity:1;" />
      <stop
         style="stop-color:#000000;stop-opacity:1;"
         offset="1"
         id="stop3702" />
    </linearGradient>
    <linearGradient
       id="linearGradient3606">
      <stop
         style="stop-color:#bfdfff;stop-opacity:1;"
         offset="0"
         id="stop3608" />
      <stop
         id="stop3616"
         offset="0.2"
         style="stop-color:#5fafff;stop-opacity:1;" />
      <stop
         id="stop3614"
         offset="0.80000001"
         style="stop-color:#5fafff;stop-opacity:1;" />
      <stop
         style="stop-color:#bfdfff;stop-opacity:1;"
         offset="1"
         id="stop3610" />
    </linearGradient>
    <linearGradient
       id="linearGradient2987">
      <stop
         style="stop-color:#bfdfff;stop-opacity:1;"
         offset="0"
         id="stop2989" />
      <stop
         id="stop2991"
         offset="0.2"
         style="stop-color:#5fafff;stop-opacity:1;" />
      <stop
         id="stop2993"
         offset="0.80000001"
         style="stop-color:#5fafff;stop-opacity:1;" />
      <stop
         style="stop-color:#bfdfff;stop-opacity:1;"
         offset="1"
         id="stop2995" />
    </linearGradient>
    <linearGradient
       id="linearGradient3674">
      <stop
         style="stop-color:#000000;stop-opacity:1;"
         offset="0"
         id="stop3676" />
      <stop
         style="stop-color:#4f0700;stop-opacity:1;"
         offset="1"
         id="stop3678" />
    </linearGradient>
    <linearGradient
       id="linearGradient3666">
      <stop
         style="stop-color:#3f0f00;stop-opacity:1;"
         offset="0"
         id="stop3668" />
      <stop
         id="stop3671"
         offset="0.75"
         style="stop-color:#ff7f00;stop-opacity:1;" />
      <stop
         style="stop-color:#ff9f3f;stop-opacity:1;"
         offset="1"
         id="stop3670" />
    </linearGradient>
    <radialGradient
       inkscape:collect="always"
       xlink:href="#linearGradient3663"
       id="radialGradient3688"
       cx="24"
       cy="24"
       fx="24"
       fy="24"
       r="24"
       gradientUnits="userSpaceOnUse" />
    <linearGradient
       id="linearGradient3663">
      <stop
         style="stop-color:#00070f;stop-opacity:1;"
         offset="0"
         id="stop3667" />
      <stop
         id="stop3659"
         offset="0.94"
         style="stop-color:#00070f;stop-opacity:1;" />
      <stop
         id="stop3690"
         offset="1"
         style="stop-color:#00070f;stop-opacity:0;" />
    </linearGradient>
    <linearGradient
       gradientUnits="userSpaceOnUse"
       y2="440"
       x2="1024"
       y1="640"
       x1="1024"
       id="linearGradient4214"
       xlink:href="#linearGradient3699"
       inkscape:collect="always" />
    <linearGradient
       gradientUnits="userSpaceOnUse"
       y2="440"
       x2="1024"
       y1="640"
       x1="1024"
       id="linearGradient4204-6"
       xlink:href="#linearGradient3666-1"
       inkscape:collect="always" />
    <linearGradient
       gradientUnits="userSpaceOnUse"
       y2="440"
       x2="1024"
       y1="640"
       x1="1024"
       id="linearGradient4196-6"
       xlink:href="#linearGradient3674-5"
       inkscape:collect="always" />
    <radialGradient
       gradientUnits="userSpaceOnUse"
       r="256"
       fy="494"
       fx="1024"
       cy="494"
       cx="1024"
       id="radialGradient3687"
       xlink:href="#linearGradient3681"
       inkscape:collect="always" />
    <filter
       color-interpolation-filters="sRGB"
       inkscape:label="BlurGlowPhoenix"
       id="filter3852"
       inkscape:collect="always">
      <feGaussianBlur
         id="feGaussianBlur3854"
         stdDeviation="7.250412"
         inkscape:collect="always" />
    </filter>
    <linearGradient
       gradientUnits="userSpaceOnUse"
       y2="384"
       x2="1024"
       y1="640"
       x1="1024"
       id="linearGradient3836-1"
       xlink:href="#linearGradient3699"
       inkscape:collect="always" />
    <linearGradient
       gradientUnits="userSpaceOnUse"
       y2="384"
       x2="1024"
       y1="640"
       x1="1024"
       id="linearGradient3758"
       xlink:href="#linearGradient3698-7"
       inkscape:collect="always" />
    <linearGradient
       gradientTransform="translate(60,-1024)"
       gradientUnits="userSpaceOnUse"
       y2="1376"
       x2="1520"
       y1="1600"
       x1="1520"
       id="linearGradient3750"
       xlink:href="#linearGradient3698-7"
       inkscape:collect="always" />
    <linearGradient
       gradientTransform="translate(28,-1024)"
       gradientUnits="userSpaceOnUse"
       y2="1376"
       x2="1392"
       y1="1600"
       x1="1392"
       id="linearGradient3742"
       xlink:href="#linearGradient3698-7"
       inkscape:collect="always" />
    <linearGradient
       gradientTransform="translate(12,-1024)"
       gradientUnits="userSpaceOnUse"
       y2="1376"
       x2="1248"
       y1="1600"
       x1="1248"
       id="linearGradient3734"
       xlink:href="#linearGradient3698-7"
       inkscape:collect="always" />
    <linearGradient
       gradientTransform="translate(0,-1024)"
       gradientUnits="userSpaceOnUse"
       y2="1376"
       x2="768"
       y1="1600"
       x1="768"
       id="linearGradient3726"
       xlink:href="#linearGradient3698-7"
       inkscape:collect="always" />
    <linearGradient
       gradientTransform="translate(0,-1024)"
       gradientUnits="userSpaceOnUse"
       y2="1376"
       x2="576"
       y1="1600"
       x1="576"
       id="linearGradient3718"
       xlink:href="#linearGradient3698-7"
       inkscape:collect="always" />
    <linearGradient
       gradientTransform="translate(0,-1024)"
       gradientUnits="userSpaceOnUse"
       y2="1376"
       x2="400"
       y1="1600"
       x1="400"
       id="linearGradient3704"
       xlink:href="#linearGradient3698-7"
       inkscape:collect="always" />
    <linearGradient
       gradientUnits="userSpaceOnUse"
       y2="384"
       x2="1024"
       y1="592"
       x1="1024"
       id="linearGradient3680"
       xlink:href="#linearGradient3674-5"
       inkscape:collect="always" />
    <linearGradient
       gradientUnits="userSpaceOnUse"
       y2="384"
       x2="1024"
       y1="592"
       x1="1024"
       id="linearGradient3672"
       xlink:href="#linearGradient3666-1"
       inkscape:collect="always" />
    <linearGradient
       gradientTransform="translate(0,-1024)"
       gradientUnits="userSpaceOnUse"
       y2="1480"
       x2="1024"
       y1="1664"
       x1="1024"
       id="linearGradient3664"
       xlink:href="#linearGradient3606-6"
       inkscape:collect="always" />
    <linearGradient
       gradientTransform="translate(60,-1024)"
       gradientUnits="userSpaceOnUse"
       y2="1480"
       x2="1528"
       y1="1592"
       x1="1528"
       id="linearGradient3656"
       xlink:href="#linearGradient3606-6"
       inkscape:collect="always" />
    <linearGradient
       gradientTransform="translate(28,-1024)"
       gradientUnits="userSpaceOnUse"
       y2="1480"
       x2="1392"
       y1="1592"
       x1="1392"
       id="linearGradient3648"
       xlink:href="#linearGradient3606-6"
       inkscape:collect="always" />
    <linearGradient
       gradientTransform="translate(12,-1024)"
       gradientUnits="userSpaceOnUse"
       y2="1480"
       x2="1248"
       y1="1592"
       x1="1248"
       id="linearGradient3640"
       xlink:href="#linearGradient3606-6"
       inkscape:collect="always" />
    <linearGradient
       gradientTransform="translate(0,-1024)"
       gradientUnits="userSpaceOnUse"
       y2="1480"
       x2="776"
       y1="1592"
       x1="776"
       id="linearGradient3632"
       xlink:href="#linearGradient3606-6"
       inkscape:collect="always" />
    <linearGradient
       gradientTransform="translate(0,-1024)"
       gradientUnits="userSpaceOnUse"
       y2="1480"
       x2="584"
       y1="1592"
       x1="584"
       id="linearGradient3624"
       xlink:href="#linearGradient3606-6"
       inkscape:collect="always" />
    <linearGradient
       gradientTransform="translate(0,-1024)"
       gradientUnits="userSpaceOnUse"
       y2="1480"
       x2="408"
       y1="1592"
       x1="408"
       id="linearGradient3612"
       xlink:href="#linearGradient3606-6"
       inkscape:collect="always" />
    <linearGradient
       id="linearGradient3606-6">
      <stop
         id="stop3608-0"
         offset="0"
         style="stop-color:#bfdfff;stop-opacity:1;" />
      <stop
         style="stop-color:#5fafff;stop-opacity:1;"
         offset="0.2"
         id="stop3616-5" />
      <stop
         style="stop-color:#5fafff;stop-opacity:1;"
         offset="0.80000001"
         id="stop3614-1" />
      <stop
         id="stop3610-8"
         offset="1"
         style="stop-color:#bfdfff;stop-opacity:1;" />
    </linearGradient>
    <linearGradient
       id="linearGradient3666-1">
      <stop
         id="stop3668-2"
         offset="0"
         style="stop-color:#3f0f00;stop-opacity:1;" />
      <stop
         style="stop-color:#ff7f00;stop-opacity:1;"
         offset="0.75"
         id="stop3671-1" />
      <stop
         id="stop3670-6"
         offset="1"
         style="stop-color:#ff9f3f;stop-opacity:1;" />
    </linearGradient>
    <linearGradient
       id="linearGradient3674-5">
      <stop
         id="stop3676-4"
         offset="0"
         style="stop-color:#000000;stop-opacity:1;" />
      <stop
         id="stop3678-2"
         offset="1"
         style="stop-color:#3f0700;stop-opacity:1;" />
    </linearGradient>
    <linearGradient
       id="linearGradient3698-7">
      <stop
         id="stop3700-0"
         offset="0"
         style="stop-color:#000000;stop-opacity:1;" />
      <stop
         style="stop-color:#0f3f6f;stop-opacity:1;"
         offset="0.5"
         id="stop3706-5" />
      <stop
         id="stop3702-0"
         offset="1"
         style="stop-color:#000000;stop-opacity:1;" />
    </linearGradient>
    <linearGradient
       id="linearGradient3699">
      <stop
         style="stop-color:#3f0f00;stop-opacity:0.49803922;"
         offset="0"
         id="stop3701" />
      <stop
         id="stop3673"
         offset="0.75"
         style="stop-color:#ff7f00;stop-opacity:0.49803922;" />
      <stop
         style="stop-color:#ff9f3f;stop-opacity:0.49803922;"
         offset="1"
         id="stop3703" />
    </linearGradient>
    <linearGradient
       id="linearGradient3681">
      <stop
         style="stop-color:#1f7fff;stop-opacity:0;"
         offset="0"
         id="stop3691" />
      <stop
         id="stop3695"
         offset="0.31"
         style="stop-color:#1f7fff;stop-opacity:0;" />
      <stop
         style="stop-color:#1f7fff;stop-opacity:0.18431373;"
         offset="0.44"
         id="stop3689" />
      <stop
         id="stop3704"
         offset="0.85000002"
         style="stop-color:#1f7fff;stop-opacity:0;" />
      <stop
         id="stop3685"
         offset="1"
         style="stop-color:#1f7fff;stop-opacity:0;" />
    </linearGradient>
    <linearGradient
       inkscape:collect="always"
       xlink:href="#linearGradient3674-5"
       id="linearGradient4897"
       gradientUnits="userSpaceOnUse"
       x1="1024"
       y1="640"
       x2="1024"
       y2="440"
       gradientTransform="matrix(0.302643,0,0,0.302643,505.283,985.578)" />
    <linearGradient
       inkscape:collect="always"
       xlink:href="#linearGradient3666-1"
       id="linearGradient4899"
       gradientUnits="userSpaceOnUse"
       x1="1024"
       y1="640"
       x2="1024"
       y2="440"
       gradientTransform="matrix(0.302643,0,0,0.302643,505.283,985.578)" />
    <linearGradient
       inkscape:collect="always"
       xlink:href="#linearGradient3674-5"
       id="linearGradient4937"
       gradientUnits="userSpaceOnUse"
       x1="1024"
       y1="592"
       x2="1024"
       y2="384"
       gradientTransform="matrix(0.302643,0,0,0.302643,505.283,985.578)" />
    <linearGradient
       inkscape:collect="always"
       xlink:href="#linearGradient3666-1"
       id="linearGradient4939"
       gradientUnits="userSpaceOnUse"
       x1="1024"
       y1="592"
       x2="1024"
       y2="384"
       gradientTransform="matrix(0.302643,0,0,0.302643,505.283,985.578)" />
    <linearGradient
       inkscape:collect="always"
       xlink:href="#linearGradient3699"
       id="linearGradient4955"
       gradientUnits="userSpaceOnUse"
       x1="1024"
       y1="640"
       x2="1024"
       y2="384" />
    <linearGradient
       inkscape:collect="always"
       xlink:href="#linearGradient3674-5"
       id="linearGradient4957"
       gradientUnits="userSpaceOnUse"
       gradientTransform="matrix(0.302643,0,0,0.302643,505.283,985.578)"
       x1="1024"
       y1="592"
       x2="1024"
       y2="384" />
    <linearGradient
       inkscape:collect="always"
       xlink:href="#linearGradient3666-1"
       id="linearGradient4959"
       gradientUnits="userSpaceOnUse"
       gradientTransform="matrix(0.302643,0,0,0.302643,505.283,985.578)"
       x1="1024"
       y1="592"
       x2="1024"
       y2="384" />
    <linearGradient
       inkscape:collect="always"
       xlink:href="#linearGradient3606-6"
       id="linearGradient4961"
       gradientUnits="userSpaceOnUse"
       gradientTransform="translate(0,-1024)"
       x1="1024"
       y1="1664"
       x2="1024"
       y2="1480" />
    <linearGradient
       inkscape:collect="always"
       xlink:href="#linearGradient3698-7"
       id="linearGradient4963"
       gradientUnits="userSpaceOnUse"
       x1="1024"
       y1="640"
       x2="1024"
       y2="384" />
    <linearGradient
       inkscape:collect="always"
       xlink:href="#linearGradient3699"
       id="linearGradient4965"
       gradientUnits="userSpaceOnUse"
       x1="1024"
       y1="640"
       x2="1024"
       y2="440" />
    <linearGradient
       inkscape:collect="always"
       xlink:href="#linearGradient3674-5"
       id="linearGradient4967"
       gradientUnits="userSpaceOnUse"
       gradientTransform="matrix(0.302643,0,0,0.302643,505.283,985.578)"
       x1="1024"
       y1="640"
       x2="1024"
       y2="440" />
    <linearGradient
       inkscape:collect="always"
       xlink:href="#linearGradient3666-1"
       id="linearGradient4969"
       gradientUnits="userSpaceOnUse"
       gradientTransform="matrix(0.302643,0,0,0.302643,505.283,985.578)"
       x1="1024"
       y1="640"
       x2="1024"
       y2="440" />
    <filter
       color-interpolation-filters="sRGB"
       inkscape:label="BlurGlowRing"
       id="filter3675-9"
       inkscape:collect="always">
      <feGaussianBlur
         id="feGaussianBlur3677-6"
         stdDeviation="9.994378"
         inkscape:collect="always" />
    </filter>
    <linearGradient
       inkscape:collect="always"
       xlink:href="#linearGradient3606-6-2"
       id="linearGradient4961-7"
       gradientUnits="userSpaceOnUse"
       gradientTransform="translate(0,-1024)"
       x1="1024"
       y1="1664"
       x2="1024"
       y2="1480" />
    <linearGradient
       id="linearGradient3606-6-2">
      <stop
         id="stop3608-0-3"
         offset="0"
         style="stop-color:#bfdfff;stop-opacity:1;" />
      <stop
         style="stop-color:#5fafff;stop-opacity:1;"
         offset="0.2"
         id="stop3616-5-2" />
      <stop
         style="stop-color:#5fafff;stop-opacity:1;"
         offset="0.80000001"
         id="stop3614-1-6" />
      <stop
         id="stop3610-8-4"
         offset="1"
         style="stop-color:#bfdfff;stop-opacity:1;" />
    </linearGradient>
    <linearGradient
       inkscape:collect="always"
       xlink:href="#linearGradient3698-7-2"
       id="linearGradient4963-5"
       gradientUnits="userSpaceOnUse"
       x1="1024"
       y1="640"
       x2="1024"
       y2="384" />
    <linearGradient
       id="linearGradient3698-7-2">
      <stop
         id="stop3700-0-3"
         offset="0"
         style="stop-color:#000000;stop-opacity:1;" />
      <stop
         style="stop-color:#0f3f6f;stop-opacity:1;"
         offset="0.5"
         id="stop3706-5-8" />
      <stop
         id="stop3702-0-9"
         offset="1"
         style="stop-color:#000000;stop-opacity:1;" />
    </linearGradient>
    <linearGradient
       y2="384"
       x2="1024"
       y1="640"
       x1="1024"
       gradientUnits="userSpaceOnUse"
       id="linearGradient4998"
       xlink:href="#linearGradient3698-7-2"
       inkscape:collect="always" />
    <filter
       color-interpolation-filters="sRGB"
       inkscape:label="BlurGlowRing"
       id="filter3675-90"
       inkscape:collect="always">
      <feGaussianBlur
         id="feGaussianBlur3677-5"
         stdDeviation="9.994378"
         inkscape:collect="always" />
    </filter>
    <linearGradient
       inkscape:collect="always"
       xlink:href="#linearGradient3606-6-0"
       id="linearGradient4961-79"
       gradientUnits="userSpaceOnUse"
       gradientTransform="translate(0,-1024)"
       x1="1024"
       y1="1664"
       x2="1024"
       y2="1480" />
    <linearGradient
       id="linearGradient3606-6-0">
      <stop
         id="stop3608-0-8"
         offset="0"
         style="stop-color:#bfdfff;stop-opacity:1;" />
      <stop
         style="stop-color:#5fafff;stop-opacity:1;"
         offset="0.2"
         id="stop3616-5-1" />
      <stop
         style="stop-color:#5fafff;stop-opacity:1;"
         offset="0.80000001"
         id="stop3614-1-1" />
      <stop
         id="stop3610-8-40"
         offset="1"
         style="stop-color:#bfdfff;stop-opacity:1;" />
    </linearGradient>
    <linearGradient
       inkscape:collect="always"
       xlink:href="#linearGradient3698-7-6"
       id="linearGradient4963-54"
       gradientUnits="userSpaceOnUse"
       x1="1024"
       y1="640"
       x2="1024"
       y2="384" />
    <linearGradient
       id="linearGradient3698-7-6">
      <stop
         id="stop3700-0-1"
         offset="0"
         style="stop-color:#000000;stop-opacity:1;" />
      <stop
         style="stop-color:#0f3f6f;stop-opacity:1;"
         offset="0.5"
         id="stop3706-5-81" />
      <stop
         id="stop3702-0-8"
         offset="1"
         style="stop-color:#000000;stop-opacity:1;" />
    </linearGradient>
    <linearGradient
       y2="384"
       x2="1024"
       y1="640"
       x1="1024"
       gradientUnits="userSpaceOnUse"
       id="linearGradient4998-1"
       xlink:href="#linearGradient3698-7-6"
       inkscape:collect="always" />
  </defs>
  <sodipodi:namedview
     id="base"
     pagecolor="#ffffff"
     bordercolor="#666666"
     borderopacity="1.0"
     inkscape:pageopacity="0.0"
     inkscape:pageshadow="2"
     inkscape:zoom="1.77187"
     inkscape:cx="201.092"
     inkscape:cy="475.366"
     inkscape:document-units="px"
     inkscape:current-layer="layer1"
     showgrid="false"
     fit-margin-top="0"
     fit-margin-left="0"
     fit-margin-right="0"
     fit-margin-bottom="0"
     inkscape:window-width="1680"
     inkscape:window-height="1024"
     inkscape:window-x="0"
     inkscape:window-y="1"
     inkscape:window-maximized="1" />
  <metadata
     id="metadata7">
    <rdf:RDF>
      <cc:Work
         rdf:about="">
        <dc:format>image/svg+xml</dc:format>
        <dc:type
           rdf:resource="http://purl.org/dc/dcmitype/StillImage" />
        <dc:title />
      </cc:Work>
    </rdf:RDF>
  </metadata>
  <g
     inkscape:label="Layer 1"
     inkscape:groupmode="layer"
     id="layer1"
     transform="translate(-39.7126,-218.645)"
     style="display:inline">
    <path
       style="fill:#eeeeec;stroke:#00ff00;stroke-width:5;stroke-linecap:butt;stroke-linejoin:miter;stroke-miterlimit:4;stroke-opacity:1;stroke-dasharray:none"
       d="M 262.275,578.976 242.275,613.976 212.275,658.976 207.275,698.976 207.275,718.976 217.275,738.976 232.275,753.976 237.275,778.976 247.275,788.976 252.275,813.976 267.275,853.976 267.275,868.976"
       id="path3225" />
    <path
       style="fill:#eeeeec;stroke:#00ff00;stroke-width:5;stroke-linecap:butt;stroke-linejoin:miter;stroke-miterlimit:4;stroke-opacity:1;stroke-dasharray:none"
       d="M 482.275,588.976 457.275,568.976 397.275,543.976 262.275,543.976 227.275,553.976 192.275,578.976 152.275,628.976 97.2751,653.976 77.2751,683.976 47.2751,713.976 42.2751,793.976 82.2751,828.976 97.2751,833.976 127.275,853.976 147.275,858.976 182.275,858.976 192.275,823.976 192.275,793.976 177.275,773.976 142.275,758.976 132.275,743.976 137.275,728.976 192.275,728.976 207.275,718.976"
       id="path2896" />
    <path
       inkscape:connector-curvature="0"
       style="fill:#eeeeec;stroke:#00ff00;stroke-width:5;stroke-linecap:butt;stroke-linejoin:miter;stroke-miterlimit:4;stroke-opacity:1;stroke-dasharray:none"
       d="M 397.275,488.976 387.275,543.976"
       id="path3680"
       sodipodi:nodetypes="cc" />
    <path
       inkscape:connector-curvature="0"
       style="fill:#eeeeec;stroke:#00ff00;stroke-width:5;stroke-linecap:butt;stroke-linejoin:miter;stroke-miterlimit:4;stroke-opacity:1;stroke-dasharray:none"
       d="M 482.454,833.976 482.275,893.976 512.275,943.976 582.275,1108.98 407.275,1148.98 362.275,1073.98 262.275,1153.98 47.2751,1113.98 72.2751,1088.98 142.275,1028.98 227.275,978.976 252.275,968.976 257.275,953.976 252.275,943.976"
       id="path3682" />
    <path
       inkscape:connector-curvature="0"
       style="fill:#eeeeec;stroke:#0000ff;stroke-width:5;stroke-linecap:butt;stroke-linejoin:miter;stroke-miterlimit:4;stroke-opacity:1;stroke-dasharray:none"
       d="M 147.275,757.548 152.275,683.976 172.275,508.976 222.275,268.976 247.275,238.976 272.275,223.976 242.275,333.976 212.275,453.976 192.275,578.976 172.275,768.976 147.275,757.548 z"
       id="path3698" />
    <path
       inkscape:connector-curvature="0"
       style="fill:#eeeeec;stroke:#00ff00;stroke-width:1px;stroke-linecap:butt;stroke-linejoin:miter;stroke-opacity:1"
       d="M 387.275,543.976 337.275,608.976 292.275,623.976 282.275,613.976 272.275,588.976 262.275,543.976"
       id="path3700"
       sodipodi:nodetypes="cccccc" />
    <path
       inkscape:connector-curvature="0"
       style="fill:#eeeeec;stroke:#00ff00;stroke-width:1px;stroke-linecap:butt;stroke-linejoin:miter;stroke-opacity:1"
       d="M 251.918,624.333 262.275,623.976 287.275,643.976 292.275,678.976 297.275,648.976 312.275,638.976 332.275,628.976 352.275,633.976 362.275,638.976"
       id="path3702" />
    <path
       style="fill:#eeeeec;stroke:#00ff00;stroke-width:3;stroke-linecap:butt;stroke-linejoin:miter;stroke-miterlimit:4;stroke-opacity:1;stroke-dasharray:none"
       d="M 245.983,786.392 C 236.565,779.345 235.123,768.308 234.599,756.814 L 247.275,748.976 272.275,723.976 332.275,748.976 372.275,743.976 392.275,733.976 C 374.78,758.456 376.778,764.79 374.275,794.055 L 315.908,785.184 282.275,753.976 277.275,748.976 272.275,758.976 257.275,778.976 245.983,786.392 257.275,823.976 277.275,808.976 282.275,793.976 297.275,803.976 377.275,818.976"
       id="path3704"
       inkscape:connector-curvature="0"
       sodipodi:nodetypes="ccccccccccccccccccc" />
    <path
       inkscape:connector-curvature="0"
       style="fill:#eeeeec;stroke:#00ff00;stroke-width:3;stroke-linecap:butt;stroke-linejoin:miter;stroke-miterlimit:4;stroke-opacity:1;stroke-dasharray:none"
       d="M 147.737,764.659 112.275,773.976 92.2751,798.976 97.2751,828.976 102.275,833.976"
       id="path3708" />
    <path
       inkscape:connector-curvature="0"
       style="fill:#eeeeec;stroke:#00ff00;stroke-width:3;stroke-linecap:butt;stroke-linejoin:miter;stroke-miterlimit:4;stroke-opacity:1;stroke-dasharray:none"
       d="M 132.275,738.976 112.275,723.976 92.2751,723.976"
       id="path3712" />
    <path
       inkscape:connector-curvature="0"
       style="fill:#eeeeec;stroke:#00ff00;stroke-width:3;stroke-linecap:butt;stroke-linejoin:miter;stroke-miterlimit:4;stroke-opacity:1;stroke-dasharray:none"
       d="M 138.141,733.849 127.275,718.976 112.275,708.976"
       id="path3714" />
    <path
       id="path3720"
       style="fill:#eeeeec;stroke:#00ff00;stroke-width:3;stroke-linecap:butt;stroke-linejoin:miter;stroke-miterlimit:4;stroke-opacity:1;stroke-dasharray:none"
       d="M 382.275,828.976 412.275,843.976 M 382.275,828.976 417.275,828.976 M 512.275,723.976 512.275,763.976 487.275,823.976 472.275,858.976 462.275,888.976 382.275,923.976 337.275,923.976 227.275,948.976 157.275,948.976 122.275,938.976 107.275,923.976 107.275,883.976 112.275,868.976 127.275,858.976 182.275,858.976 192.275,868.976 202.275,893.976 232.275,888.976 267.275,868.976 382.275,828.976 372.275,793.976 377.275,758.976 397.275,728.976" />
    <path
       id="path3716"
       style="fill:#eeeeec;stroke:#00ff00;stroke-width:3;stroke-linecap:butt;stroke-linejoin:miter;stroke-miterlimit:4;stroke-opacity:1;stroke-dasharray:none"
       d="M 522.275,708.976 537.275,658.976 532.275,628.976 512.275,603.976 482.275,588.976 447.275,588.976 412.275,608.976 387.275,658.976 387.275,698.976 397.275,728.976 412.275,738.976 427.275,738.976 447.275,723.976 467.275,718.976 487.275,723.976 512.275,723.976 z"
       inkscape:connector-curvature="0"
       sodipodi:nodetypes="ccccccccccccccccc" />
    <path
       inkscape:connector-curvature="0"
       style="fill:#eeeeec;stroke:#00ff00;stroke-width:3;stroke-linecap:butt;stroke-linejoin:miter;stroke-miterlimit:4;stroke-opacity:1;stroke-dasharray:none"
       d="M 227.275,893.976 217.275,913.976 222.275,948.976 212.275,948.976 212.275,923.976 212.275,903.976 222.275,893.976 212.275,893.976 202.275,908.976 202.275,948.976 197.275,948.976 192.275,923.976 197.275,908.976 207.275,893.976 202.275,893.976 187.275,908.976 187.275,938.976 192.275,948.976"
       id="path3722" />
    <path
       inkscape:connector-curvature="0"
       style="fill:#eeeeec;fill-opacity:1;stroke:none"
       d="M 815.189,1057.61 C 772.4,1057.61 737.713,1092.29 737.713,1135.08 737.713,1177.87 772.4,1212.56 815.189,1212.56 857.977,1212.56 892.666,1177.87 892.666,1135.08 892.666,1092.29 857.977,1057.61 815.189,1057.61 z"
       id="BackgroundGlow" />
    <g
       transform="matrix(0.517433,0,-0.200872,0.517433,-126.684,386.25)"
       id="Ring-9">
      <path
         id="RingGlow-1"
         d="M 969.281,396.281 C 925.981,416.811 896,460.923 896,512 896,582.656 953.344,640 1024,640 1094.66,640 1152,582.656 1152,512 1152,460.923 1122.02,416.811 1078.72,396.281 1112.89,415.467 1136,452.044 1136,494 1136,548.546 1096.94,594.017 1045.28,603.969 1038.39,605.297 1030,636 1024,636 1018,636 1009.61,605.297 1002.72,603.969 951.063,594.017 912,548.546 912,494 912,452.044 935.106,415.467 969.281,396.281 z"
         style="fill:#1f7fff;fill-opacity:1;stroke:none;filter:url(#filter3675-90)"
         inkscape:connector-curvature="0" />
      <path
         style="fill:url(#linearGradient4961-79);fill-opacity:1;stroke:none"
         d="M 969.281,396.281 C 925.981,416.811 896,460.923 896,512 896,582.656 953.344,640 1024,640 1094.66,640 1152,582.656 1152,512 1152,460.923 1122.02,416.811 1078.72,396.281 1112.89,415.467 1136,452.044 1136,494 1136,548.546 1096.94,594.017 1045.28,603.969 1038.39,605.297 1030,636 1024,636 1018,636 1009.61,605.297 1002.72,603.969 951.063,594.017 912,548.546 912,494 912,452.044 935.106,415.467 969.281,396.281 z"
         id="RingBorder-6"
         inkscape:connector-curvature="0" />
      <path
         style="fill:url(#linearGradient4998-1);fill-opacity:1;stroke:#00001f;stroke-width:1.5;stroke-linejoin:miter;stroke-miterlimit:4;stroke-opacity:1;stroke-dasharray:none"
         d="M 924.437,436.406 C 908.475,457.398 899,483.594 899,512 899,579.695 952.819,634.885 1020,637 1012,630 1006,608 1002,607 948.966,596.77 909,550.02 909,494 909,473.019 914.623,453.34 924.437,436.406 z M 1123.56,436.406 C 1133.38,453.34 1139,473.019 1139,494 1139,550.02 1099.03,596.77 1046,607 1042,608 1036,630 1028,637 1095.18,634.885 1149,579.695 1149,512 1149,483.594 1139.52,457.398 1123.56,436.406 z"
         id="RingBody-1"
         sodipodi:nodetypes="csccsccsccsc"
         inkscape:connector-curvature="0" />
    </g>
    <path
       inkscape:connector-curvature="0"
       style="fill:#eeeeec;stroke:#00ff00;stroke-width:5;stroke-linecap:butt;stroke-linejoin:miter;stroke-miterlimit:4;stroke-opacity:1;stroke-dasharray:none"
       d="M 262.275,543.976 287.275,573.976 327.275,558.976 362.275,538.976 382.275,508.976 402.275,483.976 412.275,453.976 407.275,413.976 382.275,373.976 357.275,358.976 297.275,363.976 272.275,383.976 252.275,418.976 247.275,453.976 247.275,503.976 262.275,543.976 z"
       id="path3678" />
  </g>
  <g
     inkscape:groupmode="layer"
     id="layer2"
     inkscape:label="Belt"
     style="display:none">
    <path
       transform="translate(-39.7126,-218.645)"
       inkscape:connector-curvature="0"
       style="fill:none;stroke:#00ff00;stroke-width:3;stroke-linecap:butt;stroke-linejoin:miter;stroke-miterlimit:4;stroke-opacity:1;stroke-dasharray:none"
       d="M 257.275,958.976 292.275,983.976 337.275,998.976 397.275,998.976 457.275,968.976 507.275,933.976 482.275,893.976 407.275,923.976 382.275,923.976"
       id="path3684" />
    <g
       id="g4945"
       transform="matrix(0.622887,0,0,0.622887,-174.623,27.084)">
      <path
         transform="matrix(0.302643,0,0,0.302643,505.283,985.578)"
         style="fill:url(#linearGradient4955);fill-opacity:1;fill-rule:evenodd;stroke:none;filter:url(#filter3852)"
         d="M 963.156,392.594 C 921.079,414.097 891.651,457.242 890.063,507.781 888.258,565.21 922.94,615.378 973.156,636 939.219,629.528 908.753,631.347 903.031,615.375 893.971,590.083 867.292,595.842 867.531,620.656 851.614,620.102 826.02,613.828 801.156,643.781 800.833,574.456 889.859,592.399 869.5,551.562 858.043,528.581 822.381,547.937 836.281,563.281 792.55,571.913 757.604,555.327 692.5,587 750.404,499.485 875.679,537.691 869.875,490.031 865.427,453.503 810.801,472.149 829.531,495.969 796.672,507.118 736.734,472.304 643.5,489.969 730.379,418.163 889.141,476.429 895.75,430.187 900.97,393.664 847.116,392.791 848.781,422.875 779.271,388.661 758.01,415.928 666.125,385.062 772.924,383.665 871.398,345.039 963.156,392.594 z M 816.969,438.344 C 744.83,434.239 749.141,445.063 711.219,441.25 720.791,406.273 627.821,423.068 686.313,445.437 563.951,439.392 566.116,486.758 443.094,463.969 582.004,449.501 694.809,368.232 816.969,438.344 z M 617.75,498.219 C 584.131,513.037 563.737,540.707 493.781,534.687 540.962,536.905 577.436,478.919 617.75,498.219 z M 804.063,511.25 C 732.304,518.963 756.42,531.982 721.781,534.437 726.113,500.541 645.152,528.171 700.063,541.531 590.629,557.314 616.746,601.348 503.531,585.906 618.156,570.911 649.505,464.444 804.063,511.25 z M 829.594,582.656 C 795.948,592.415 804.059,601.999 785.938,605.562 778.986,569.713 716.216,624.556 773.438,620.812 711.818,631.384 724.628,663.943 662.031,655.969 718.366,641.805 730.153,555.075 829.594,582.656 z M 676.438,605.531 C 650.589,620.673 653.591,636.318 590.25,641.219 623.189,641.029 650.833,588.63 676.438,605.531 z M 1084.84,392.594 C 1126.92,414.097 1156.35,457.242 1157.94,507.781 1159.74,565.21 1125.06,615.378 1074.84,636 1108.78,629.528 1139.25,631.347 1144.97,615.375 1154.03,590.083 1180.71,595.842 1180.47,620.656 1196.39,620.102 1221.98,613.828 1246.84,643.781 1247.17,574.456 1158.14,592.398 1178.5,551.562 1189.96,528.581 1225.62,547.937 1211.72,563.281 1255.45,571.913 1290.4,555.327 1355.5,587 1297.6,499.485 1172.32,537.691 1178.13,490.031 1182.57,453.503 1237.2,472.149 1218.47,495.969 1251.33,507.118 1311.27,472.304 1404.5,489.969 1317.62,418.163 1158.86,476.429 1152.25,430.187 1147.03,393.664 1200.88,392.791 1199.22,422.875 1268.73,388.661 1289.99,415.928 1381.88,385.062 1275.08,383.664 1176.6,345.039 1084.84,392.594 z M 1231.03,438.344 C 1303.17,434.239 1298.86,445.063 1336.78,441.25 1327.21,406.273 1420.18,423.068 1361.69,445.437 1484.05,439.392 1481.88,486.758 1604.91,463.969 1466,449.501 1353.19,368.232 1231.03,438.344 z M 1430.25,498.219 C 1463.87,513.037 1484.26,540.707 1554.22,534.687 1507.04,536.905 1470.56,478.919 1430.25,498.219 z M 1243.94,511.25 C 1315.7,518.963 1291.58,531.982 1326.22,534.437 1321.89,500.541 1402.85,528.171 1347.94,541.531 1457.37,557.314 1431.25,601.348 1544.47,585.906 1429.84,570.911 1398.5,464.444 1243.94,511.25 z M 1218.41,582.656 C 1252.05,592.415 1243.94,601.999 1262.06,605.562 1269.01,569.713 1331.78,624.556 1274.56,620.812 1336.18,631.384 1323.37,663.943 1385.97,655.969 1329.63,641.805 1317.85,555.075 1218.41,582.656 z M 1371.56,605.531 C 1397.41,620.673 1394.41,636.318 1457.75,641.219 1424.81,641.029 1397.17,588.63 1371.56,605.531 z"
         id="PhoenixWingsGlow"
         sodipodi:nodetypes="cccsccsccsccscccccccccccccccccccccccccccsccsccsccscccccccccccccccccccccccc"
         inkscape:connector-curvature="0" />
      <path
         sodipodi:nodetypes="cccsccsccsccscccccccccccccccccccccccccccsccsccsccscccccccccccccccccccccccc"
         id="PhoenixWings"
         d="M 796.775,1104.39 C 784.041,1110.9 775.135,1123.96 774.654,1139.25 774.108,1156.63 784.604,1171.82 799.802,1178.06 789.531,1176.1 780.311,1176.65 778.579,1171.82 775.837,1164.16 767.763,1165.91 767.835,1173.42 763.018,1173.25 755.272,1171.35 747.747,1180.41 747.65,1159.43 774.593,1164.86 768.431,1152.5 764.964,1145.55 754.171,1151.41 758.378,1156.05 745.143,1158.66 734.567,1153.64 714.863,1163.23 732.388,1136.74 770.301,1148.31 768.545,1133.88 767.198,1122.83 750.666,1128.47 756.335,1135.68 746.39,1139.05 728.25,1128.52 700.034,1133.86 726.327,1112.13 774.375,1129.77 776.375,1115.77 777.955,1104.72 761.657,1104.45 762.161,1113.56 741.124,1103.2 734.689,1111.46 706.881,1102.11 739.203,1101.69 769.006,1090 796.775,1104.39 z M 752.533,1118.24 C 730.701,1117 732.005,1120.27 720.528,1119.12 723.425,1108.53 695.289,1113.62 712.991,1120.39 675.959,1118.56 676.614,1132.89 639.382,1125.99 681.422,1121.62 715.562,1097.02 752.533,1118.24 z M 692.241,1136.36 C 682.066,1140.85 675.894,1149.22 654.722,1147.4 669.001,1148.07 680.04,1130.52 692.241,1136.36 z M 748.627,1140.3 C 726.91,1142.64 734.208,1146.58 723.725,1147.32 725.036,1137.06 700.534,1145.43 717.152,1149.47 684.033,1154.25 691.937,1167.57 657.673,1162.9 692.364,1158.36 701.851,1126.14 748.627,1140.3 z M 756.354,1161.91 C 746.171,1164.87 748.626,1167.77 743.142,1168.85 741.038,1158 722.041,1174.6 739.359,1173.46 720.71,1176.66 724.587,1186.52 705.642,1184.1 722.691,1179.82 726.259,1153.57 756.354,1161.91 z M 710.002,1168.84 C 702.179,1173.42 703.088,1178.16 683.918,1179.64 693.887,1179.58 702.253,1163.72 710.002,1168.84 z M 833.602,1104.39 C 846.337,1110.9 855.244,1123.96 855.725,1139.25 856.27,1156.63 845.775,1171.82 830.576,1178.06 840.848,1176.1 850.069,1176.65 851.8,1171.82 854.542,1164.16 862.617,1165.91 862.544,1173.42 867.362,1173.25 875.107,1171.35 882.63,1180.41 882.73,1159.43 855.786,1164.86 861.948,1152.5 865.416,1145.55 876.208,1151.41 872.002,1156.05 885.236,1158.66 895.814,1153.64 915.516,1163.23 897.993,1136.74 860.077,1148.31 861.836,1133.88 863.18,1122.83 879.713,1128.47 874.044,1135.68 883.989,1139.05 902.13,1128.52 930.345,1133.86 904.051,1112.13 856.004,1129.77 854.003,1115.77 852.424,1104.72 868.721,1104.45 868.219,1113.56 889.255,1103.2 895.689,1111.46 923.499,1102.11 891.177,1101.69 861.373,1090 833.602,1104.39 z M 877.846,1118.24 C 899.678,1117 898.374,1120.27 909.85,1119.12 906.954,1108.53 935.091,1113.62 917.389,1120.39 954.42,1118.56 953.764,1132.89 990.998,1125.99 948.958,1121.62 914.816,1097.02 877.846,1118.24 z M 938.138,1136.36 C 948.313,1140.85 954.484,1149.22 975.657,1147.4 961.378,1148.07 950.338,1130.52 938.138,1136.36 z M 881.753,1140.3 C 903.47,1142.64 896.171,1146.58 906.654,1147.32 905.344,1137.06 929.846,1145.43 913.228,1149.47 946.346,1154.25 938.441,1167.57 972.706,1162.9 938.014,1158.36 928.529,1126.14 881.753,1140.3 z M 874.026,1161.91 C 884.207,1164.87 881.753,1167.77 887.237,1168.85 889.34,1158 908.337,1174.6 891.02,1173.46 909.669,1176.66 905.792,1186.52 924.737,1184.1 907.686,1179.82 904.121,1153.57 874.026,1161.91 z M 920.376,1168.84 C 928.199,1173.42 927.291,1178.16 946.461,1179.64 936.492,1179.58 928.127,1163.72 920.376,1168.84 z"
         style="fill:url(#linearGradient4957);fill-opacity:1;fill-rule:evenodd;stroke:url(#linearGradient4959);stroke-width:0.605286;stroke-linejoin:round;stroke-miterlimit:4;stroke-dasharray:none"
         inkscape:connector-curvature="0" />
      <path
         transform="matrix(0.302643,0,0,0.302643,505.283,985.578)"
         style="fill:url(#linearGradient4965);fill-opacity:1;fill-rule:evenodd;stroke:none;filter:url(#filter3852)"
         d="M 1057.09,439.719 C 1023.09,445.203 979.582,487.664 937.187,521.781 L 989.312,497.719 959.187,529.75 985.219,517.562 C 976.674,534.405 977.589,563.539 949.469,569.281 964.111,583.772 982.927,594.062 1003.97,598.094 1014,600 1021,628 1024,628 1027,628 1034,600 1044.03,598.094 1065.88,593.907 1085.32,582.973 1100.19,567.594 1025.8,568.523 1030.5,493.046 1096.22,476.531 1091.15,471.808 1074.28,472.693 1060.47,474.875 1062.88,458.781 1085.7,451.073 1102.56,453.156 1092.92,443.378 1081.19,436.314 1061.72,444.437 L 1057.09,439.719 z M 1047.75,453.281 1052.81,458.281 C 1046.2,463.879 1040.33,464.251 1034.75,459.25 L 1047.75,453.281 z"
         id="PhoenixHeadGlow"
         sodipodi:nodetypes="cccccccsccccccccccc"
         inkscape:connector-curvature="0" />
      <path
         sodipodi:nodetypes="cccccccsccccccccccc"
         id="PhoenixHead"
         d="M 825.204,1118.66 C 814.914,1120.32 801.747,1133.17 788.916,1143.49 L 804.691,1136.21 795.574,1145.9 803.453,1142.21 C 800.867,1147.31 801.143,1156.13 792.633,1157.87 797.064,1162.25 802.759,1165.37 809.127,1166.59 812.163,1167.16 814.282,1175.64 815.189,1175.64 816.097,1175.64 818.216,1167.16 821.251,1166.59 827.864,1165.32 833.748,1162.01 838.248,1157.36 815.734,1157.64 817.157,1134.79 837.046,1129.8 835.512,1128.37 830.406,1128.64 826.227,1129.3 826.956,1124.42 833.863,1122.09 838.965,1122.72 836.048,1119.76 832.498,1117.63 826.605,1120.08 L 825.204,1118.66 z M 822.377,1122.76 823.909,1124.27 C 821.908,1125.97 820.132,1126.08 818.443,1124.57 L 822.377,1122.76 z"
         style="fill:url(#linearGradient4967);fill-opacity:1;fill-rule:evenodd;stroke:url(#linearGradient4969);stroke-width:0.605286;stroke-linejoin:round;stroke-miterlimit:4;stroke-opacity:1;stroke-dasharray:none"
         inkscape:connector-curvature="0" />
      <g
         transform="matrix(0.302642,0,0,0.302642,505.284,985.579)"
         id="Ring">
        <path
           id="RingGlow"
           d="M 969.281,396.281 C 925.981,416.811 896,460.923 896,512 896,582.656 953.344,640 1024,640 1094.66,640 1152,582.656 1152,512 1152,460.923 1122.02,416.811 1078.72,396.281 1112.89,415.467 1136,452.044 1136,494 1136,548.546 1096.94,594.017 1045.28,603.969 1038.39,605.297 1030,636 1024,636 1018,636 1009.61,605.297 1002.72,603.969 951.063,594.017 912,548.546 912,494 912,452.044 935.106,415.467 969.281,396.281 z"
           style="fill:#1f7fff;fill-opacity:1;stroke:none;filter:url(#filter3675-9)"
           inkscape:connector-curvature="0" />
        <path
           style="fill:url(#linearGradient4961-7);fill-opacity:1;stroke:none"
           d="M 969.281,396.281 C 925.981,416.811 896,460.923 896,512 896,582.656 953.344,640 1024,640 1094.66,640 1152,582.656 1152,512 1152,460.923 1122.02,416.811 1078.72,396.281 1112.89,415.467 1136,452.044 1136,494 1136,548.546 1096.94,594.017 1045.28,603.969 1038.39,605.297 1030,636 1024,636 1018,636 1009.61,605.297 1002.72,603.969 951.063,594.017 912,548.546 912,494 912,452.044 935.106,415.467 969.281,396.281 z"
           id="RingBorder"
           inkscape:connector-curvature="0" />
        <path
           style="fill:url(#linearGradient4998);fill-opacity:1;stroke:#00001f;stroke-width:1.5;stroke-linejoin:miter;stroke-miterlimit:4;stroke-opacity:1;stroke-dasharray:none"
           d="M 924.437,436.406 C 908.475,457.398 899,483.594 899,512 899,579.695 952.819,634.885 1020,637 1012,630 1006,608 1002,607 948.966,596.77 909,550.02 909,494 909,473.019 914.623,453.34 924.437,436.406 z M 1123.56,436.406 C 1133.38,453.34 1139,473.019 1139,494 1139,550.02 1099.03,596.77 1046,607 1042,608 1036,630 1028,637 1095.18,634.885 1149,579.695 1149,512 1149,483.594 1139.52,457.398 1123.56,436.406 z"
           id="RingBody"
           sodipodi:nodetypes="csccsccsccsc"
           inkscape:connector-curvature="0" />
      </g>
    </g>
  </g>
</svg>
